<?xml version="1.0" encoding="UTF-8"?>
<!DOCTYPE svg PUBLIC "-//W3C//DTD SVG 1.0//EN" "http://www.w3.org/TR/2001/REC-SVG-20010904/DTD/svg10.dtd">
<!-- Creator: CorelDRAW X6 -->
<svg xmlns="http://www.w3.org/2000/svg" xml:space="preserve" width="210mm" height="297mm" version="1.0" style="shape-rendering:geometricPrecision; text-rendering:geometricPrecision; image-rendering:optimizeQuality; fill-rule:evenodd; clip-rule:evenodd"
viewBox="0 0 21000 29700"
 xmlns:xlink="http://www.w3.org/1999/xlink">
 <defs>
  <style type="text/css">
   <![CDATA[
    .fil0 {fill:#F0B750}
   ]]>
  </style>
 </defs>
 <g id="Layer_x0020_1">
  <metadata id="CorelCorpID_0Corel-Layer"/>
  <path class="fil0" d="M17593 11595c-25,5 -54,10 -92,17 -64,12 -167,30 -231,41l-150 25c-135,22 -160,22 -187,-3 -12,-10 -21,-23 -26,-37 0,-7 -4,-12 -9,-12 -6,0 -12,1 -18,1 -6,0 -12,0 -18,-1 -22,-1 -24,-5 -15,-23 14,-26 3,-41 -18,-23 -24,20 -18,2 9,-29 19,-19 43,-31 70,-36 39,-7 43,-10 31,-25 -19,-22 -3,-24 -742,66 -51,6 -142,14 -202,17 -60,3 -169,11 -242,18 -73,7 -169,14 -213,17 -65,8 -131,13 -196,13 -8,0 -17,0 -25,0 -97,0 -182,3 -191,6 -21,7 -291,21 -355,19 0,0 -1,0 -1,0 -24,0 -48,-6 -69,-18 -22,-20 -77,-22 -334,-12 -88,1 -176,10 -263,25 -47,13 -124,17 -329,15 -147,-1 -392,2 -544,7 -89,4 -181,7 -271,7 -113,0 -228,-4 -341,-11 -207,-9 -326,-9 -507,-2 -32,1 -49,5 -37,8 11,3 20,11 20,17 0,8 -32,10 -95,5 -52,-4 -209,-12 -349,-19 -140,-7 -319,-17 -398,-24 -318,-26 -440,-35 -605,-46 -414,-26 -632,-37 -859,-41 -105,-2 -234,-7 -288,-12 -54,-4 -134,-7 -179,-7 -44,1 -133,-4 -196,-10 -63,-6 -269,-14 -456,-16 -188,-3 -364,-10 -392,-16 -47,-8 -94,-14 -141,-17 -50,-3 -107,-9 -127,-12 -109,-14 -220,-22 -330,-23 -137,-4 -270,-14 -467,-36 -32,-3 -76,-8 -98,-9 -22,-2 -79,-7 -127,-11 -47,-4 -128,-11 -179,-14 -39,-6 -79,-10 -119,-10 -154,-5 -154,-5 -154,-24 0,-10 -6,-17 -12,-17 -7,0 -8,6 -4,13 6,9 2,11 -12,6 -15,-5 -30,-7 -46,-8 -17,0 -26,-7 -27,-23 -2,-28 4,-29 27,-6 24,24 51,22 43,-3 -4,-12 -3,-15 3,-7 7,9 39,10 102,5 41,-3 82,-5 123,-5 73,0 145,5 217,15 60,7 138,15 173,19 1,0 2,0 3,0 8,0 15,-5 17,-13 5,-13 16,-15 42,-10 29,2 59,6 88,12 8,5 162,6 374,2 21,-1 42,-2 63,-2 79,0 158,8 236,22 40,9 318,13 318,5 -24,-11 -51,-16 -78,-17 -43,-5 -88,-10 -101,-13 -2,0 -4,0 -6,0 -29,0 -59,-3 -87,-10 -11,-7 -364,-35 -383,-30 -31,0 -63,-2 -95,-6 -74,-7 -261,-21 -308,-23 -17,-1 -19,-16 -3,-25 11,-7 98,-9 177,-3 0,0 1,0 1,0 19,0 37,6 52,18 7,11 27,13 77,7 25,-2 51,-6 76,-12 4,-3 16,3 25,13 10,10 20,13 24,8 7,-11 239,-6 307,6 25,1 49,7 72,16 20,11 25,11 25,-2 0,-9 15,-17 37,-19 49,-3 99,-5 148,-5 57,0 115,2 172,7 73,6 104,5 93,-2 -45,-30 40,-45 173,-30 118,13 139,14 190,6 139,21 280,35 421,38 54,1 132,5 173,9 41,4 124,11 184,14 60,3 203,14 317,23 114,9 284,20 377,25 152,7 171,6 177,-11 6,-16 26,-19 136,-19 6,0 14,0 21,0 53,0 107,-3 159,-9l52 -9 -86 -13c-42,-6 -84,-11 -127,-13 -22,0 -113,-8 -202,-18 -89,-10 -257,-24 -375,-31 -117,-7 -225,-15 -239,-19 -14,-3 -131,-11 -259,-17 -231,-11 -393,-20 -516,-29 -35,-2 -155,-10 -266,-16 -111,-6 -210,-14 -219,-17 -9,-3 -27,-9 -40,-14 -21,0 -41,-8 -58,-21 -11,-15 -41,-19 -146,-21 -32,-8 -65,-13 -98,-14 -227,-18 -455,-32 -559,-36 -64,-2 -198,-13 -300,-24 -101,-11 -231,-22 -288,-24 -395,-15 -710,-33 -876,-51 -57,-6 -157,-15 -222,-19 -42,0 -84,-6 -125,-17 -3,-5 11,-10 32,-11 21,-1 53,-2 71,-3 18,-1 35,1 38,6 3,4 24,3 48,-4 24,-4 49,-7 73,-7 15,0 30,1 45,3 42,4 262,10 491,12 228,2 501,8 605,12 187,7 239,3 117,-10 -23,-1 -45,-5 -67,-12 -8,-8 34,-29 69,-33 41,-5 54,-20 19,-21 -15,-1 -95,-6 -178,-12 -83,-6 -245,-14 -360,-18 -190,-6 -210,-9 -210,-27 0,-25 -46,-31 -326,-42 -113,-4 -208,-12 -211,-18 -14,-7 -30,-10 -46,-10 -4,0 -7,0 -11,1 -95,0 -68,-32 48,-58 32,-7 65,-11 98,-11 140,8 104,-15 -54,-33 -64,-7 -152,-16 -196,-19 -44,-3 -125,-11 -179,-17 -54,-6 -163,-15 -242,-19 -98,-5 -148,-12 -156,-23 -6,-8 -48,-19 -92,-23 -38,-2 -75,-11 -110,-25 -16,-11 -66,-19 -135,-22 -148,-7 -264,-20 -271,-30 -7,-11 94,-26 110,-17 6,4 12,2 12,-4 0,-6 -18,-14 -40,-19 -44,-8 -52,-23 -20,-35 38,-15 -15,-38 -134,-59 -100,-18 -162,-39 -117,-40 43,-1 -23,-21 -93,-28 -27,-12 -57,-19 -86,-23 -111,-18 -110,-32 3,-41 32,0 64,-9 93,-24 16,-15 36,-16 110,-10 149,14 178,11 200,-19 11,-14 18,-30 15,-34 -21,-9 -43,-15 -66,-17 -83,-12 -66,-29 30,-29 28,-6 57,-9 85,-9 7,0 15,0 22,1 69,0 100,-4 104,-14 3,-10 -9,-14 -39,-14 -37,-1 -75,-7 -111,-18 -7,-6 -16,-8 -20,-4 -4,4 -19,2 -34,-3 -21,-7 -8,-11 54,-17 28,-2 56,-6 84,-11l12650 0 0 1681zm-13277 -1644c0,5 43,15 95,23 52,8 108,17 123,22 17,5 25,4 21,-3 -34,-14 -71,-23 -108,-26 -56,-8 -107,-16 -113,-18l-14 -5c-2,-1 -3,3 -3,8l0 0zm77 196c0,5 52,16 116,23 143,16 169,17 154,2 -45,-13 -91,-20 -138,-21 -70,-6 -128,-11 -129,-12 -2,-1 -3,3 -3,8l0 0zm2879 756c0,5 16,10 35,11 20,1 32,-2 28,-9 -370,-43 -425,-45 -425,-32l362 30zm-215 33c0,5 8,10 17,10 10,0 17,-4 17,-10 0,-5 -8,-10 -17,-10 -10,0 -72,12 -72,17l55 -8zm-48 -2c3,2 7,2 10,2 4,0 8,-1 12,-3 4,-4 -3,-7 -15,-6 -13,1 -16,3 -7,7l0 0zm-536 431c3,2 7,2 10,2 4,0 8,-1 12,-3 4,-4 -3,-7 -15,-6 -13,1 -16,3 -7,7zm10532 272c-1,2 -2,4 -2,7 0,4 2,8 6,11 6,4 13,-1 17,-11 7,-19 -10,-24 -21,-6zm-11458 -453c-22,11 -47,17 -73,17 -10,0 -20,-1 -30,-3 -9,-5 -10,-11 -4,-11 62,-7 112,-9 106,-3zm70 14c10,6 2,9 -20,9 -19,0 -35,-4 -35,-10 0,-12 36,-12 55,0l0 0zm296 15c49,11 169,19 393,26 -23,16 -49,29 -75,38 -4,0 -4,-5 0,-12 4,-6 -8,-12 -28,-12 -19,0 -35,5 -35,12 0,6 -6,12 -12,12 0,0 0,0 0,0 -7,0 -8,-6 -4,-14 6,-11 4,-11 -8,-3 -11,7 -24,10 -38,10 -1,0 -1,0 -2,0 -13,-1 -51,-2 -84,-3 -34,-1 -59,-6 -56,-10 3,-5 -26,-8 -66,-7 -6,0 -12,1 -18,1 -25,0 -49,-3 -73,-10 -13,-7 -20,-7 -20,2 0,7 -6,9 -14,4 -35,-8 -71,-12 -107,-12 -2,0 -3,0 -5,0 -54,-2 -98,-4 -98,-5 0,-1 -26,-3 -58,-5 -11,-5 -23,-8 -35,-10 -9,-2 45,-35 55,-34 3,1 26,6 52,11l336 21zm467 58c0,6 10,10 22,10 1,0 2,0 3,0 10,0 19,-4 26,-10 3,-6 -7,-10 -22,-10 -16,0 -29,5 -29,10zm-594 43c2,4 7,7 12,7 2,0 4,-1 6,-2 6,-4 11,-1 11,5 0,22 -19,23 -32,1 -8,-12 -12,-22 -9,-22 3,0 8,5 12,12zm247 45c12,12 25,20 27,17 20,-6 41,-9 61,-9 54,-4 120,20 103,37 -13,13 -93,10 -110,-4 -9,-7 -21,-12 -33,-12 -11,0 -23,4 -32,11 -12,12 -71,10 -79,-4 -11,-18 5,-58 24,-58 15,3 28,11 39,22l0 0zm-158 -31c5,8 3,10 -4,6 -2,-2 -5,-2 -8,-2 -5,0 -9,2 -12,6 -11,17 -25,14 -25,-6 0,-20 37,-23 49,-4l0 0zm11149 419c0,6 -2,12 -5,12 -3,0 -8,-5 -12,-12 -4,-6 -2,-12 5,-12 3,-6 10,-10 16,-10 10,0 19,8 19,19 0,3 -1,6 -2,9l-21 -6zm-281 -13c19,14 14,33 -6,28 -13,-3 -21,1 -23,13 -1,10 -3,26 -4,35 -10,1 -20,2 -30,4 -5,1 -24,7 -43,12 -42,11 -65,28 -57,42 3,6 -4,10 -16,10 -1,0 -1,0 -2,0 -11,0 -21,-5 -27,-14 -4,-10 -9,-11 -15,-2 -10,14 -26,21 -43,21 -10,0 -19,-3 -28,-8 -15,-12 -16,-12 -8,2 7,12 5,15 -10,9 -11,-4 -23,-7 -36,-8 -9,0 -19,-10 -23,-22 -2,-10 -11,-18 -21,-18 -2,0 -5,0 -7,1 -29,8 -26,36 3,31 23,-4 23,-4 1,7 -37,2 -73,6 -110,12 -101,16 -353,44 -468,52 -54,4 -121,9 -150,11 -60,5 -179,14 -334,24 -60,4 -143,10 -184,13 -99,8 -255,9 -277,1 -22,-6 -44,-11 -66,-15 -27,-5 -49,-13 -49,-17 7,-14 17,-27 28,-37 23,-23 39,-28 87,-27 34,1 56,-4 54,-11 -2,-6 -44,-12 -93,-13 -77,-1 -128,-16 -110,-32 8,-7 161,-15 161,-8 37,10 75,15 113,15 5,0 9,0 14,0 76,2 109,7 104,15 -4,7 1,5 12,-3 13,-8 28,-12 43,-12 8,0 16,1 24,4 31,5 44,3 40,-4 -8,-13 -7,-13 98,-16 34,0 68,-4 101,-11 14,-5 26,-5 26,0 0,5 13,9 29,9 16,0 29,-4 29,-9 0,-5 8,-9 18,-9 10,0 15,4 12,10 -8,13 110,-6 119,-19 16,-24 232,-48 232,-26 0,0 0,0 0,0 0,7 5,12 12,12 7,0 9,-5 6,-11 -10,-17 16,-27 33,-13 12,10 17,9 21,-2 4,-10 23,-14 53,-12 26,1 47,-2 47,-8 0,-19 59,-7 71,15 6,11 16,18 22,14 4,-2 7,-6 7,-11 0,-2 0,-4 -1,-6 -3,-5 2,-12 11,-16 3,-1 6,-2 9,-2 6,0 11,2 15,7 4,7 19,5 38,-6 35,-20 146,-41 160,-30l391 29zm-447 55c0,20 -7,23 -17,7 -1,-2 -2,-4 -2,-6 0,-5 3,-9 7,-12 652,11 657,16 657,26l-645 -15zm-60 27c-5,5 -13,8 -20,8 -2,0 -5,0 -7,-1 -9,-3 -3,-8 12,-12 19,-5 24,-4 15,5l0 0zm-3310 37c14,3 26,9 26,14 0,14 -50,6 -55,-8 -2,-7 -3,-13 -1,-12 2,1 16,4 30,7l0 0zm239 26c-32,14 -50,14 -29,0 10,-6 22,-10 35,-11 11,0 9,4 -6,11l0 0zm-99 -1c4,6 -4,8 -17,4 -27,-7 -30,-15 -6,-15 6,-7 14,-11 23,-11 13,0 25,9 29,22l-29 0zm1461 16c18,18 10,20 -133,20 -84,1 -164,3 -178,6 -14,3 -28,1 -32,-5 -3,-5 -22,-9 -41,-7 -52,4 -53,-13 0,-18 25,-2 43,0 40,5 -9,15 8,10 26,-8 20,-20 68,-23 79,-6 5,8 15,7 30,-1 26,-14 50,-4 38,15 -5,8 -2,9 8,2 26,-9 52,-15 80,-16 50,-5 68,-2 83,13l0 0zm-1087 -11c0,6 -2,12 -5,12 -3,0 -8,-5 -12,-12 -4,-6 -2,-12 5,-12 5,-59 54,-104 113,-104 63,0 114,51 114,114 0,3 0,6 0,10l-214 -8zm449 12c10,7 12,11 4,11 -8,0 -16,-5 -21,-11 217,5 221,5 243,19l-226 -19zm-4500 13c-6,10 38,21 47,12 12,-12 64,-15 64,-3 0,7 33,9 89,5 69,-5 98,-3 130,12 22,10 32,16 21,14 -11,-3 -21,-1 -23,5 -10,2 -19,8 -26,15 -5,6 -9,0 -9,-14 0,-24 -2,-24 -32,-9 -28,15 -33,15 -48,-4 -15,-19 -16,-19 -9,0 5,16 1,20 -21,20 -16,0 -30,-8 -40,-20 -7,-11 -12,-14 -12,-6 0,15 -35,21 -35,6 0,-5 -39,-8 -87,-8 -8,-6 -17,-9 -27,-9 -1,0 -3,0 -4,0 -20,0 -22,-3 -10,-14 14,-14 154,-21 145,-7l-114 5zm-180 26c0,0 0,0 0,0 0,5 -4,9 -9,10 -5,0 -25,3 -46,6 -46,6 -62,-14 -18,-22 256,-26 285,-24 285,-12l-213 18zm830 38c0,6 19,12 43,12 3,0 5,0 8,0 15,0 31,-4 44,-12 6,-8 9,-8 9,0 0,14 69,18 69,3 0,-6 5,-8 11,-4 11,7 112,18 220,24 21,0 43,2 64,6 0,8 152,8 161,0 17,-14 133,-23 133,-11 0,6 8,11 17,11 10,0 17,-5 17,-11 0,-7 81,-9 216,-6 119,3 229,5 244,5 22,1 45,5 66,11 23,6 38,6 38,0 0,-11 40,-9 51,2 22,2 45,4 67,4 16,0 33,-1 50,-2 73,-3 116,0 127,9 13,11 16,10 16,-2 0,-10 3,-11 9,-4 5,8 71,13 164,13 86,1 345,4 576,8 231,4 528,7 660,8 15,5 32,8 48,8 5,0 10,0 16,-1 35,0 64,-4 64,-9 0,-5 6,-9 12,-9 7,0 9,5 5,12 -4,6 1,12 11,12 10,0 18,5 18,12 0,6 5,12 12,12 0,0 0,0 0,0 7,0 9,-5 5,-12 -4,-7 8,-11 31,-11 29,0 34,3 21,11 -13,8 -13,11 -2,11 12,0 11,4 -2,17 -11,10 -26,16 -41,17 -13,0 -24,6 -24,12 0,7 -10,9 -25,5 -16,-5 -22,-4 -17,5 4,7 5,13 1,13 -4,0 -11,-11 -16,-24l-9 -24 -30 24c-21,16 -33,20 -38,11 -6,-9 -11,-8 -18,3 -8,13 -87,16 -422,15 -227,0 -506,-4 -620,-8 -114,-4 -304,-10 -421,-14 -424,-13 -533,-18 -542,-24 -21,-13 -114,-25 -128,-16 -3,2 -6,3 -10,3 -6,0 -11,-3 -14,-8 -7,-10 -12,-9 -20,3 -6,10 -11,12 -12,6 0,-7 -71,-11 -193,-10 -193,1 -522,-17 -522,-30 -105,0 -209,-9 -313,-26 -13,-4 -13,-8 -1,-22 12,-14 11,-16 -2,-12 -9,3 -31,8 -48,12 -20,4 -30,12 -26,21 4,8 1,6 -7,-4 -11,-15 -26,-16 -77,-9 -17,-7 -35,-11 -53,-12 -30,-1 -30,-2 -5,-7 22,-4 24,-8 12,-16 -18,-11 -3,-13 160,-15 57,-1 95,3 95,10l65 2zm3077 141c4,9 11,14 17,11 16,-10 12,-28 -7,-28 477,-55 473,-49 477,-38l-487 55zm672 -39c-12,22 -11,25 5,19 16,-6 17,-4 5,18l-14 25 -11 -26c-13,-30 -37,-34 -47,-8 -4,10 -2,17 3,17 5,0 9,8 9,17 0,14 -10,16 -56,10 -38,-5 -56,-3 -56,6 0,7 -18,13 -41,13 -27,0 -38,-4 -33,-13 6,-9 1,-9 -16,0 -20,11 -23,10 -17,-5 4,-10 11,-18 17,-18 6,0 10,-5 10,-11 0,0 0,0 0,-1 0,-24 -21,-10 -35,23 -16,39 -16,39 -45,23 -15,-8 -19,-20 -15,-41 3,-16 1,-28 -4,-26 -1,0 -2,0 -3,0 -6,0 -11,-3 -13,-8 -3,-7 24,-12 67,-13 67,-2 74,0 85,26 12,27 55,39 55,15 0,-7 -5,-9 -11,-5 -6,4 -9,0 -5,-10 3,-7 9,-12 17,-12 3,0 5,1 8,2 12,5 15,2 10,-6 -9,-15 29,-26 74,-21 3,0 7,0 10,0 14,0 27,-3 40,-8 19,-9 20,-8 7,15l0 0zm-373 35c-3,5 1,10 10,10 9,0 14,-4 10,-10 -3,-5 -8,-10 -10,-10 -2,0 537,-43 534,-38l-544 47zm471 -46c3,6 -4,13 -17,16 -15,4 -21,12 -16,24 4,10 2,18 -4,18 -16,0 -13,-38 4,-55 17,-17 568,-65 577,-51l-544 47zm-71 32c-3,8 -7,15 -9,15 -2,0 -6,-7 -9,-15 -3,-8 1,-15 9,-15 8,0 557,-40 554,-32l-544 47zm-44 32c-14,10 -31,16 -48,17 -27,0 -45,-17 -28,-28 2,-1 3,-1 5,-1 5,0 9,3 10,8 3,10 11,10 29,0 35,-19 58,-16 31,4l0 0zm78 -9c-4,2 -8,3 -12,3 -4,0 -7,-1 -10,-2 -9,-4 -6,-6 7,-7 12,-1 19,2 15,6l0 0zm-608 5c15,10 14,11 -3,11 -11,0 -20,-5 -20,-11 0,-14 1,-14 23,0zm62 18c6,14 3,15 -16,5 -27,-14 -29,-23 -7,-23 0,-3 0,-6 0,-10 0,-178 144,-321 321,-321 174,0 316,138 321,312l-620 37z"/>
 </g>
</svg>
