<svg xmlns="http://www.w3.org/2000/svg" xmlns:xlink="http://www.w3.org/1999/xlink" width="603.836" height="108.479" viewBox="0 0 603.836 108.479"><defs><style>.a,.b{fill:none;}.a{clip-rule:evenodd;}.c{clip-path:url(#a);}.d{clip-path:url(#b);}.e{clip-path:url(#c);}.f{clip-path:url(#d);}.g{fill:#d5f2ee;}</style><clipPath id="a"><path class="a" d="M91-49.319H694.836V59.16H91Z" transform="translate(-91 49.319)"/></clipPath><clipPath id="b"><rect class="b" width="765.737" height="111.1"/></clipPath><clipPath id="c"><path class="a" d="M40.238,32.628l3.746-6.286-4.174,6.151ZM27.876,2.537a8.874,8.874,0,0,0-1.716-.254C27.867,2.537,27.876,2.537,27.876,2.537Zm-11.747.951,1.28-.1C17.013,3.881,16.585,3.815,16.129,3.488Zm2.339-2.34c-.261-.038-.5-.071-.789-.113l1.5-1.4S18.875.279,18.469,1.148Zm61.3-14.14A73.241,73.241,0,0,1,91.8-11.205c1.507-.38,3.051-.729,4.619-1.04,1.575-.265,3.177-.5,4.792-.692,8.675-1.055,17.142-1.955,25.484-2.724-1.146-.577.856-.767,1.864-1,1.046-.2,2.077-.406,3.109-.609L104.7-15.245C96.475-14.769,87.612-13.465,79.772-12.991ZM391.895-36.478c-8.872-.5-17.709-.5-26.514-.942-8.805-.38-17.587-.917-26.366-1.656l12.852-.212q9.981.606,19.99,1.214C378.527-37.643,385.209-37.241,391.895-36.478ZM64.74,5.167l.028-.006L62.3,4.4C63.3,4.716,64.085,4.962,64.74,5.167ZM114.9-10.474l-.861-.188,2.973.113,4.271,1.491ZM692.9,42c-4.464-.59-8.71-1.073-12.542-1.184a6.977,6.977,0,0,1-2.06-.479c.194.485-.7.686-2.315.515l-12.009-1.32q-6.06-.612-12.2-1.226c-8.18-.876-16.445-1.865-24.757-2.914-8.3-1.162-16.7-1.882-25.09-2.788l-25.162-2.615a2.819,2.819,0,0,1-1.505.78c-2.4.66-7.089.615-11.877-.188l-3.6-.737-21.865-3.715c-7.282-1.243-14.552-2.517-21.838-3.493a76.1,76.1,0,0,1-10.291-.1q-9.532.022-19.121.041l-9.622-.064q-4.832.054-9.708.113c.8.353,1.273.746,1.245,1.134-.3.914-3.334,1.4-6.827,1.122q-2.651-.157-5.29-.31l15.132,1.782a18.309,18.309,0,0,1,2.007.3c5.547.372,11.13,1.07,16.829,1.5C540.162,31.684,587,35.2,633.64,39.536a6.421,6.421,0,0,1,2.6.594c.421.3.3.592-.558.556-7.411-.171-14.552-.429-21.669-.244-7.1.16-14.142.316-21.3.476-7.143.124-14.387.177-21.909.064-7.543.1-15.366.062-23.645-.246-39.391-1.716-78.235-1.671-118.4-1.891-10.49-.419-20.786-.69-31-.863L382.5,37.807l-15.223.378-30.628.946-31.411,1.914c-57.663,3.747-112,8.431-168.061,15.992a128.074,128.074,0,0,1-28.526,1.968,58.8,58.8,0,0,1-10.014-1.361c-2.63-.69-4.478-1.66-5.307-2.9-1.94-3.008,2.459-7.025,10.924-10.505-1.736.2-3.44.485-5.159.744l-8.221.729c-7.786.654-14.528.414-18.9-.731l-6-1.316a107,107,0,0,0-14.378-3.792c-5.064-1.055-9.97-2.169-13.391-3.809l1.174-1.983-1.542-.2c-5.043-.278-8.553-1.248-9.925-2.763l.188-2.158c.7-2.568,2.852-5.277,6.511-8.155a3,3,0,0,1,1.025-2.814c-3.646-1.449-5.543-3.344-3.2-6.324-2.111-.207-1.9-1.175.456-2.177a18.36,18.36,0,0,1,2.825-.891l-.026,0c-1.186-.316-1.54-.406-3.125-.705l-3.232.32L19.2,9.5a35.2,35.2,0,0,1-6.733-.436c-4.968-2.8-4.975-2.8-4.512-4.521a9.819,9.819,0,0,1,.8-.626l-4.88.22A11.266,11.266,0,0,1,2.087,3.86c-.28-.823-.28-.823-.936-1.008a1.055,1.055,0,0,1-.245-.615C2.761.888,2.761.888,2.775.606A8.533,8.533,0,0,1,3.832-.082L7.423-1.264,12.762-.052l.982-.983,1.308.784-.79-.8,2.612.062-3.007-.241C19.9-2.088,19.9-2.088,22.3-2.6A37.744,37.744,0,0,0,27.159-3.71a1,1,0,0,1-.289-.453L39.619-5.934a14.637,14.637,0,0,1,1.544.323,8.174,8.174,0,0,1,2.985-.934c1.1-.165,2.2-.329,3.3-.491l.685-.271-.016-.068,2.72-.917c.544-.2.56-.2.56-.2l.033,0,11.785-3.936c1.961-.216,3.79-.372,5.522-.485-.569-.051-1.113-.1-1.644-.152-1.058-.128-.22-1.1-.787-1.088-6.973.329-14.25.8-21.608,1.707L22.44-9.419c-2.63.628-5.175.639-5.656.051-.438-.609,1.364-1.6,4.063-2.226,7.323-2.6,15.125-4.97,23.194-7.106,8.076-2.064,16.457-3.594,24.873-5.038,8.42-1.408,16.9-2.568,25.211-3.483,8.337-.711,16.524-1.109,24.336-1.305q12.262-1.122,24.634-2.25l-1.209-.254c2.144-.088,4.293-.062,6.434-.1l.692-.045-4.955-.985c-1.127-.049-2.246-.017-3.385,0-9.55,1.008-18.7,1.525-27.785,1.927-9.085.434-18.129.562-27.385,1.491-9.963.861-18.615.863-28.093,1.384-2.419.327-4.151.073-3.941-.592.208-.632,2.4-1.431,4.767-1.758C89.3-36.363,125.226-40.424,150.7-38.269a84.114,84.114,0,0,1,15.9-.335l.259-.011-3.616-.88c4.3-.152,6.654.641,10.585.658-.5-.5-1.06-1.058-1.563-1.564,5.293-.306,10.687-.718,16.107-1.16s10.882-.639,16.29-.936c10.817-.53,21.446-.865,31.275-.387.789-.006,1.524-.013,2.26-.021a196.859,196.859,0,0,1,26.862-3.888c-3.394-.019-6.707-.038-10.106-.06a196.156,196.156,0,0,1,22.215-2.254,207.151,207.151,0,0,1,31.65,1.117c9.935,1.06,18.617,2.692,24.18,4.844,10.18-.212,20.367-.107,30.556-.175,10.187.017,20.381-.209,30.564.173l30.55.686,7.636.147,7.627.346,15.25.677c2.1.071,3.966.568,4.313,1.1.192.517-1.216.914-3.315.842q-10.939-.167-21.944-.335-11.006.006-22.064.011l-22.132-.124-5.54-.051-5.547.1-11.1.194c6.179.314,12.366.511,18.561.906l18.626,1.316,18.735,1.19,9.421.551,9.453.756,9.717.455c3.216.145,6.392.508,9.555.938l12.039.859c3.994.265,7.967.568,11.923,1.011l23.687,2.32,11.873,1.085c3.969.344,7.953.66,11.945,1.147,7.992.88,16.072,1.7,24.306,2.446l20.557,1.852c6.695.758,13.276,1.5,19.856,2.252,13.158,1.517,26.355,2.681,40.325,4.709l28.94,3.829c4.758.579,9.458,1.382,14.142,2.177l14.019,2.4c9.323,1.664,18.651,3.248,28.008,5.228,9.337,2.1,18.749,4.322,28.323,6.736C757,5.74,761.548,7.857,761.916,9.291c.384,1.427-3.515,1.675-8.64.545C672.9-6.56,593.558-16.512,509.142-25.582c-9.11-.987-18.073-1.957-26.986-2.921l.192.551c-.042.718-.928,1.276-2.385,1.7,10.109,1.164,20.289,2.476,30.494,3.867,7.133.382,14.288.564,21.448,1.154s14.347,1.209,21.59,1.914,14.544,1.485,21.919,2.384c7.36,1.073,14.788,2.342,22.319,3.726,10.335,1.983,20.17,3.918,29.746,6.316L655.848.623c6.066.989,12.157,1.795,18.207,2.906s12.106,2.216,18.166,3.327l18.221,3.365c3.042.579,6.092,1.107,9.134,1.743q4.552,1.01,9.118,2.019a4.747,4.747,0,0,1,2.273.874c.3.335-.257.455-1.25.3l-12.753-2-12.907-1.814-26.04-3.95c2.609,1.408,4.079,2.81,3.695,3.906-.387,1.139-2.648,1.728-5.973,1.765l11.708,2.677c2.408.575,4.241,1.455,4.086,2.023-.15.628-2.137.66-4.429.137l-11.933-2.7-5.964-1.342-5.985-1.171-23.93-4.694L624.87,5.736c-4.8-.776-9.631-1.28-14.442-1.942L581.512-.031c2.589,1.216,4.455,2.5,5.276,3.739l0,.021,8.914,1.333C650.386,10.331,706.188,19.982,761.42,35.4c1.088.267,1.945.709,1.916.989s-.911.291-1.884.024q-12.529-3.317-25.053-6.457l-12.519-3.1c-4.17-1.03-8.339-2.049-12.533-2.869l.065.03c.65.312.727.643-.044.675a7.185,7.185,0,0,1-2.623-.562c-.746-.359-.627-.641.03-.675L685.388,18.76c-7.791-1.476-15.54-3.115-23.342-4.209l-23.3-3.472q-5.812-.827-11.606-1.645l-5.791-.788-5.8-.615C622.7,9,629.8,10.468,636.922,11.724l21.34,3.974,10.662,2.04,10.606,2.4,21.18,4.965c3.139.348,6.267.692,9.453,1.045a5.025,5.025,0,0,1,2.257.859c.2.276-.466.414-1.352.284l-2.637-.323c5.344,1.267,9.282,3.365,8.962,4.779-.521,1.325-5.286,1.393-10.829.128q-11.169-2.3-22.307-4.6c-7.43-1.5-14.811-3.288-22.264-4.559l-4.858-.664-4.938-.244c5.756,1.258,11.521,2.438,17.256,3.782q8.584,2.147,17.152,4.286,8.563,2.16,17.109,4.312c5.693,1.442,11.386,2.825,17.022,4.512,1.949.479,3.545,1.3,3.5,1.814s-1.683.534-3.639.053c-5.027-1.068-10.094-1.944-15.169-2.805l-15.225-2.677q-7.615-1.365-15.248-2.739l-7.631-1.393-7.666-1.184c-20.458-3.128-40.927-6.7-61.551-9.258q-10.279.022-20.615.047l-5.174.015-5.2.158q-5.2.151-10.446.3l5.24.746c11.182,1.295,21.909,2.846,32.464,3.863q7.914.8,15.7,1.446c5.2.429,10.368.8,15.5,1.406,20.555,2.233,41.072,3.865,62.593,8.247a3.243,3.243,0,0,1,2.049.87c.079.278-.688.37-1.78.132C667.4,33.7,647.9,32.451,626.9,29.932c-8.685-1.141-17.221-1.679-25.57-2.414-8.354-.677-16.556-1.28-24.669-1.739,8.224,1.164,16.378,2.184,24.5,3.119q6.094.676,12.157,1.35l6.066.65,6.041.81q12.088,1.612,24.185,3.222c8.073,1.134,16.2,2.111,24.313,3.709a11.878,11.878,0,0,1,3.7,1.094c.1-.122.4-.19.847-.175,4.14.2,8.626.679,13.2,1.261a4.813,4.813,0,0,1,2.364.8c.417.318-.146.451-1.13.387Z" transform="translate(-0.906 49.319)"/></clipPath><clipPath id="d"><path class="b" d="M91,56.827H694.788V-50H91Z" transform="translate(-91 50)"/></clipPath></defs><g transform="translate(-91 49.319)"><g class="c" transform="translate(91 -49.319)"><g class="d" transform="translate(-160.189 -1.454)"><g class="e" transform="translate(1.595 1.454)"><g class="f" transform="translate(158.594 -1.454)"><path class="g" d="M-4.094-54.319H775.94V75.525H-4.094Z" transform="translate(-163.301 45.091)"/></g></g></g></g></g></svg>