<svg xmlns="http://www.w3.org/2000/svg" width="362.074" height="121.532" viewBox="0 0 362.074 121.532"><defs><style>.a{fill:#d5f2ee;}</style></defs><path class="a" d="M954.025,520c1.585-.5,1.35-.827-1.119-1.69-2.3-.8-2.649-1.665-.872-2.139,1.839-.491,10.181-.4,14.887.168a35.108,35.108,0,0,0,5.193.334l1.183-.148-1.109-1.159a4.554,4.554,0,0,0-1.838-1.264c-1.022-.148-1.249-.874-.573-1.834.714-1.013,4.715-2.5,6.227-2.317.637.078,1.029-.063.907-.328a1.384,1.384,0,0,0-1.008-.563,1.741,1.741,0,0,1-1.161-2.008c.258-.751-6.71-.732-7.385.021-.516.574-11.762.86-12.8.325l-.987-.509,1.072-.415a58.518,58.518,0,0,1,8.194-.721c7.169-.309,8.979-.925,4.377-1.49a6.3,6.3,0,0,1-3.065-.982c-.54-.569-1.371-.685-4.927-.688-6.54,0-10.351.077-11.263.238-.6.108-.763-.042-.59-.554.252-.747,1.7-1.482,3.89-1.974,1.885-.423.833-1.13-1.524-1.023-1.022.046-2.75.113-3.842.149l-1.984.066,1.813-1.354a13.712,13.712,0,0,0,1.832-1.51,12.517,12.517,0,0,0-2.626-.788c-3.439-.823-5.185-2.029-4.987-3.446.1-.748,3.026-1.408,5.653-1.28,1.082.053,3.561-.022,5.511-.166a60.8,60.8,0,0,1,6.6-.085c1.679.1,4.244.115,5.7.04,9.053-.468,11.1-.606,11.5-.779.251-.105-.391-.512-1.426-.9s-1.851-.965-1.813-1.279c.09-.727,4.643-1.773,8.686-1.994,1.967-.108,3.454-.445,3.983-.9a7.641,7.641,0,0,1,3.461-.92c3.328-.24,3.315-.858-.056-2.6-.723-.373-1.2-.892-1.058-1.154.321-.6,2.443-1.306,3.514-1.174.442.055.707-.111.59-.366s-1.662-.643-3.433-.86c-2.916-.358-4.033-.944-2.553-1.34,1.322-.354-5.024-.853-8.213-.647-3.973.257-6.047-.31-5.888-1.607.074-.6,1.3-1.246,4.608-2.433,3.117-1.117,4.346-1.751,3.983-2.054-.688-.574.111-.977,3.129-1.579,4.261-.85,7.787-2.718,7.509-3.978-.19-.86,1.461-1.114,8.171-1.256a42.065,42.065,0,0,0,7.481-.63,12.979,12.979,0,0,1,3.567-.5c3.262.009,9.6-.791,10.646-1.345a4.673,4.673,0,0,1,2.239-.36,7.178,7.178,0,0,0,2.224-.135c.725-.212.56-.322-.812-.542-3.67-.589-5.581-1.192-5.991-1.892a1.329,1.329,0,0,0-1.466-.576c-.894.131-.924.1-.215-.233a2.588,2.588,0,0,1,1.557-.169,2.248,2.248,0,0,0,1.361-.078,1.862,1.862,0,0,1,1.624.409,1.577,1.577,0,0,0,1.877.292c.557-.26.958-.243,1.091.045a5.647,5.647,0,0,0,2.669.773,9.352,9.352,0,0,1,3.465,1.069c1.2.9,1.633,1.007,1.7.428.029-.238-.251-.47-.622-.516s-.546-.242-.39-.437-.111-.511-.593-.7-.76-.594-.618-.894c.261-.554,2.24-.655,8.294-.422,5.47.211,7.007.151,7.059-.274.027-.223-.242-.442-.6-.485a.783.783,0,0,1-.542-.945c.077-.635.394-.83,1.187-.733,1.244.153,1.538-.487.427-.928a32.2,32.2,0,0,0-4.87-.569c-6.6-.436-9.207-.88-10.488-1.791a3,3,0,0,0-1.48-.7c-.164.076-.15-.4.03-1.058.394-1.435-.186-1.737-4.612-2.4-2.65-.4-2.848-.49-1.865-.855,1.616-.6,7.329-1.048,10.677-.833a9.574,9.574,0,0,0,3.986-.383c1.335-.71,2.076-.63,2.805.3a4.042,4.042,0,0,0,2.377.94,154.692,154.692,0,0,0,17,.354c1.57-.257,1.625-.322,1.48-1.78a2.418,2.418,0,0,1,.351-1.907c.347-.27.373-.595.085-1.043-.88-1.372.466-1.469,6.752-.483,4.884.765,6.425.863,7.483.478,1.12-.408,5.957-.565,9.212-.3.479.039,1.864.016,3.08-.05l2.21-.121-1.908-.553a52.1,52.1,0,0,0-7.125-.97c-2.869-.229-6.965-.658-9.1-.952a80.665,80.665,0,0,0-9.378-.5,141.917,141.917,0,0,1-14.721-.5,3.486,3.486,0,0,0-1.973.131,2.83,2.83,0,0,1-1.675.234c-.747-.061-1.377.05-1.4.247s-.467.181-.984-.035c-.735-.308-.811-.277-.347.14.511.46.489.522-.165.447-.417-.047-.784.131-.817.4-.036.3-.436.162-1.039-.346-1.089-.922-1.593-1.107-1.3-.481.1.227-.21.466-.7.532-.509.068-.862-.095-.827-.381s-.621-.584-1.561-.7c-1.031-.127-1.607-.005-1.584.333.026.366-.453.408-1.534.132-1.772-.452-3.424-1.678-3.337-2.476.038-.341-.12-.317-.44.066-.387.464-.467.325-.356-.621.184-1.561,1.059-2.8,1.9-2.7.362.045.563-.129.445-.384s.14-.437.572-.4a5.944,5.944,0,0,0,3.411-.549c.933-.461,2.938.006,2.857.666-.014.119-.275.084-.579-.077a1.252,1.252,0,0,0-1.255.383c-.6.583-.611.636-.042.382.508-.227.567-.12.258.462a.927.927,0,0,0,.11,1.176c.763.626,1.472.613.786-.014-.446-.408-.188-.434,1.04-.106a4.547,4.547,0,0,0,2.484.038,1.026,1.026,0,0,1,1.42.207c.459.487.652.463,1-.123a2.626,2.626,0,0,0,.4-1.059c-.016-.184.247-.3.583-.257a.856.856,0,0,0,.839-.4c.124-.261.8-.465,1.511-.454a2.867,2.867,0,0,0,1.849-.581c.311-.331.7-.439.877-.24s.23,0,.132-.43c-.22-.973.618-.958.86.015.155.618.278.625,1.076.064.851-.6.9-.589.807.19-.079.691-.014.728.4.228.744-.891.68-1.112-.441-1.545-.712-.274-.968-.668-.841-1.3.2-1,1.8-1.57,3.523-1.256,1.606.293,3.1-.088,3.192-.814.058-.467.5-.551,1.686-.318a13.883,13.883,0,0,0,5.847-.247c.56-.229.527-.311-.167-.424-.473-.077-1.823-.351-3-.608a49.937,49.937,0,0,0-10.337-1.246c-1.242.1-1.625.007-1.365-.317.223-.278.118-.391-.274-.293-.373.093-.9-.374-1.269-1.126-.453-.919-.479-1.316-.09-1.4.365-.074.311-.342-.162-.817-.642-.644-.592-.673.565-.322.7.212,1.041.24.76.063-1.031-.651-.363-1.108,1.318-.9,1.092.134,1.708.412,1.67.754-.044.4.057.4.383,0,.279-.339.526-.365.662-.068.232.506.787.536,2.21.124a7.539,7.539,0,0,1,2.312-.112c1.8.184,2.511-.819.738-1.037-.7-.085-1.31-.446-1.407-.832-.114-.458.1-.645.661-.577a1.543,1.543,0,0,0,1.242-.4c.591-.715,2.467-1.417,2.886-1.081a.492.492,0,0,0,.681-.121,2.078,2.078,0,0,1,1.519-.26,16.818,16.818,0,0,0,3.629-.267c2.114-.359,2.315-.477,1.52-.891a54.92,54.92,0,0,0-7.988-1.287,47.728,47.728,0,0,1-7.6-1.228.611.611,0,0,0-.877.023c-.417.52-13.914-.7-14.182-1.286-.094-.2-.488-.293-.874-.2-.476.119-.558.292-.254.535.247.2-.143.287-.866.2s-1.292-.347-1.264-.574-.276-.2-.676.052-.848.311-1,.121.259-.654.906-1.031l1.175-.687-1.106.076c-.97.066-.994.037-.192-.23a5.642,5.642,0,0,1,4.483.688c1.091.793,2.584.759,2.685-.061.046-.377.921-.443,2.879-.213,1.766.207,2.792.507,2.755.8-.031.262.224.186.57-.167.454-.464,1.658-.594,4.338-.468a55.312,55.312,0,0,0,6.515-.1,29.648,29.648,0,0,1,4.19-.147,19.521,19.521,0,0,0,3.619-.2c2.1-.305,1.869-.355-3.633-.806-3.227-.265-6.16-.513-6.517-.553s-4.891-.13-10.074-.2-10.822-.239-12.532-.375-3.037-.091-2.949.1-.681.246-1.706.121a49.851,49.851,0,0,0-5.833-.079c-3.744.14-12.455-.311-11.231-.581.311-.068.479-.317.371-.551s.352-.367,1.022-.3a7.384,7.384,0,0,0,2.832-.507c.888-.349,2.026-.769,2.529-.931,1.653-.537,27.68-1.625,33.759-1.411,1.8.063,7.025.184,11.6.267s10.614.242,13.413.352a48.691,48.691,0,0,0,7.249-.172c1.56-.268,2.225-.227,2.4.148.219.475,4.783.913,10.364.994.843.012,3.5.139,5.892.283a111.285,111.285,0,0,0,14.656-.219,5.321,5.321,0,0,1,2.3.106,41.181,41.181,0,0,0,6.782.12c5.216-.147,6.581-.059,7.333.471s1.8.588,5.757.3c6.582-.478,15.169-1.094,19.448-1.4,1.948-.138,4.785-.379,6.3-.535a24.556,24.556,0,0,1,4.184-.107,13.841,13.841,0,0,0,3.447-.206c1.875-.356,5.647-.544,15.682-.779,5.154-.121,6.2-.167,11.477-.509,2.434-.158,6.412-.368,8.838-.469l5.737-.238c5.152-.214,6.112-.081,7,.975a3.108,3.108,0,0,1,.813,1.527c-.033.27.088.486.27.48a9.75,9.75,0,0,1,1.313.161c.821.144.895.3.45.927-.651.924-.292,1.51.581.949.983-.63.7.011-.473,1.065a4.859,4.859,0,0,1-2.778,1.021c-1.482.068-1.665.182-1.268.8.594.927,0,.907,28.126.957,1.931,0,5.372.139,7.646.3s6.4.366,9.164.452,6.4.246,8.078.356a30.985,30.985,0,0,0,4.814-.038,56.865,56.865,0,0,1,8.351.544c3.623.43,6.855.726,7.184.66.516-.106,4.837.145,8.528.442V520Zm30.065-8.883c-.161.126.081.26.54.3.506.041.621-.049.293-.229a1.174,1.174,0,0,0-.542-.145A.478.478,0,0,0,984.09,511.117Zm3.492-.8c-.045.364.369.662,1.031.743.609.075,1.022-.048.919-.273a1.714,1.714,0,0,0-1.427-.806C987.825,509.981,987.61,510.083,987.582,510.316Zm-3.861-.735c-.068.551,1.675.765,2.595.319.521-.252.285-.392-.921-.545a5.578,5.578,0,0,0-.7-.046C984.141,509.308,983.742,509.409,983.721,509.581Zm-4.945-.617c-1.8.443-1.449.953.721,1.046,1.319.057,1.99-.115,2.039-.521.057-.469-.451-.726-1.285-.726A6.313,6.313,0,0,0,978.776,508.964Zm81.394-62.436c-.382.477.465.581,1.73.212.814-.237.787-.283-.249-.438a3.307,3.307,0,0,0-.485-.036A1.449,1.449,0,0,0,1060.17,446.528Zm35.543-4.243c-.161.126.082.259.54.3.507.04.621-.049.293-.229a1.174,1.174,0,0,0-.542-.145A.478.478,0,0,0,1095.713,442.285Zm-58.168-6.365a.39.39,0,0,0,.364.41.836.836,0,0,0,.673-.283c.148-.184-.016-.368-.363-.41a1.078,1.078,0,0,0-.134-.008C1037.8,435.629,1037.567,435.748,1037.545,435.92Zm-8.914-2.485c.751.628.8.634.866.106.029-.238-.288-.471-.7-.518a3.366,3.366,0,0,0-.35-.027C1028.161,433,1028.238,433.107,1028.631,433.436Zm1.78-.194c-.031.252.153.362.41.244s.475-.3.489-.4-.171-.214-.409-.244l-.05,0A.455.455,0,0,0,1030.411,433.241Zm20.3-.884c-.054.44.511.632,2.213.75a20.709,20.709,0,0,0,3.4-.012,40.5,40.5,0,0,1,4.19-.158,35.3,35.3,0,0,0,4.641-.26c.864-.149,1.569-.256,1.566-.236a21.379,21.379,0,0,0,4.6-.841c2.347-.674,2.578-1.386.53-1.637-1.057-.13-1.49-.382-1.435-.834.082-.665,2.05-.691,5.235-.067a19.582,19.582,0,0,0,6.453-.4c.732-.313-1.4-1.029-4.238-1.425a13.356,13.356,0,0,0-5.507.377,16.967,16.967,0,0,1-3.784.64c-.71-.082-.774-.006-.312.372a1.122,1.122,0,0,0,.95.3c.2-.094.348.014.321.239-.048.387-1.028.544-4.4.706a2.47,2.47,0,0,0-1.777.651c-.252.473-.419.464-.92-.056s-.584-.519-.44.078c.125.521-.077.662-.751.526a8.826,8.826,0,0,0-2.406.03c-1.029.15-1.653.036-2.039-.374-.313-.332-.579-.4-.608-.163-.058.477-3.522,1.436-4.674,1.3a.93.93,0,0,0-.114-.007A.661.661,0,0,0,1050.715,432.357Zm24.277-12.621c-.36.282-.2.359.544.259.6-.081.824-.253.513-.4a.885.885,0,0,0-.375-.076A1.146,1.146,0,0,0,1074.992,419.737Zm9.528-4.289c-.161.126.081.259.54.3.506.04.621-.049.293-.229a1.174,1.174,0,0,0-.542-.145A.478.478,0,0,0,1084.521,415.447Zm-6.688-.139,1.085.1-.959-.528c-1.083-.6-3.087-.485-3.168.176-.03.241.4.373.952.294a10.119,10.119,0,0,1,1.284-.073C1077.319,415.277,1077.6,415.287,1077.833,415.309Zm-25.818-5.563c-.181.34-.139.642.091.67s.454-.24.5-.6,0-.658-.091-.67h-.006C1052.411,409.148,1052.193,409.413,1052.015,409.746Zm-4.841-.094c-.3.566-.241.6.365.211a2.34,2.34,0,0,0,.746-.629c.02-.164-.066-.235-.2-.235A1.266,1.266,0,0,0,1047.174,409.652Zm-11.137-.771a.434.434,0,1,0,.431-.382A.436.436,0,0,0,1036.037,408.881Zm186.712-2.316c-.355.668.27.949.758.34a.474.474,0,0,0-.066-.664.293.293,0,0,0-.187-.066A.642.642,0,0,0,1222.749,406.565Zm-203.641,40.069c-.471-.094-.838-.325-.815-.512s.431-.293.906-.234.842.289.815.511c-.02.168-.257.269-.573.269A1.727,1.727,0,0,1,1019.108,446.634Zm18.077-4.64-.913-.946,2.631-.025a49.035,49.035,0,0,1,4.9.229,4.716,4.716,0,0,0,2.309-.04c.042-.337,2.536.651,2.884,1.141.127.178-.356.137-1.073-.093a4.2,4.2,0,0,0-2.646.094,9.75,9.75,0,0,1-3.619.275c-1.251-.13-2.295-.08-2.318.112a.33.33,0,0,1-.376.3A3.067,3.067,0,0,1,1037.185,441.994Zm-4.928-.245c-.458-.037-.7-.171-.54-.3a.878.878,0,0,1,.833.068c.276.152.239.239-.079.239Q1032.38,441.759,1032.257,441.749Zm-7.674-7.237c.037-.458.171-.7.3-.54a.878.878,0,0,1-.068.833c-.068.124-.124.185-.164.185C1024.582,434.99,1024.557,434.826,1024.583,434.512Zm12.669-1.774c-.371-.045-.555-.23-.41-.411s-.094-.718-.529-1.2c-.779-.852-.747-.881,2.039-1.8,3.356-1.111,3.652-1.109,3.513.024-.066.533-.4.832-.864.779-.614-.069-.651,0-.193.376a2.265,2.265,0,0,0,1.377.408c.447-.031.788.142.759.385s-.682.328-1.451.191-1.788-.275-2.267-.305c-.725-.047-.771.028-.274.443s.487.487-.161.413c-.417-.048-.781.108-.81.347-.026.21-.285.357-.6.357A1.042,1.042,0,0,1,1037.252,432.738Zm5.548-3.222c-.4-.322-.363-.5.186-.853.771-.495,1.267.081.689.8a.564.564,0,0,1-.446.209A.689.689,0,0,1,1042.8,429.516Zm-11.9-19.509a1.183,1.183,0,0,1-.863-.545c-.118-.256.077-.429.435-.385a1.187,1.187,0,0,1,.863.544c.105.23-.041.393-.328.393A.871.871,0,0,1,1030.9,410.007Zm8.233-1.394c.715-.673.975-.721.906-.165-.026.212-.382.47-.791.572a2.015,2.015,0,0,1-.4.074C1038.668,409.093,1038.77,408.956,1039.135,408.613Zm260.49-1.956a8.911,8.911,0,0,0-2.664-.518,6.852,6.852,0,0,1-2.1.043,17.359,17.359,0,0,0-3.1.051,2.12,2.12,0,0,1-1.729-.336,16.228,16.228,0,0,0-4.664-1.137c-2.839-.418-4.062-.751-3.834-1.045.185-.238-.027-.2-.472.074a3.121,3.121,0,0,1-2.532.008c-1.133-.327-1.65-.334-1.506-.022.246.534.187.536-3.745.16a18.466,18.466,0,0,0-3.836-.049c-.558.122-1,.062-.971-.132s-.444-.413-1.039-.487-1.1.014-1.12.192-.344.287-.715.242-.552-.235-.4-.42c.36-.449-4.171-.282-4.554.168-.7.824-8.906.737-8.8-.093a.464.464,0,0,0-.4-.517c-.252-.031-.368.139-.259.377.314.681-.729.949-1.307.336-.388-.411-.594-.415-.807-.012-.185.347-.917.427-2.055.221-.972-.175-1.789-.136-1.816.086-.088.715-2.253-.027-2.585-.887-.177-.457-.524-.738-.771-.625a.465.465,0,0,0-.273.591c.1.211-.121.459-.485.55a.767.767,0,0,1-.87-.287c-.128-.276-.692-.257-1.447.051-1.422.578-5.656.857-6.136.4h0c-.635-.6-.378-1.315.366-1.02.474.189.811.051.909-.373.085-.369.224-.959.307-1.311a.921.921,0,0,1,.951-.6,7.948,7.948,0,0,0,1.135-.005c.184-.028.939-.135,1.676-.239,1.64-.231,2.579-.763,2.326-1.314-.1-.227.2-.365.665-.308a1.214,1.214,0,0,1,1.007.672c.106.394.28.439.567.148a2.044,2.044,0,0,1,2.722-.19c.505.522.559.518.315-.029-.224-.5-.122-.568.425-.277a4.634,4.634,0,0,0,1.3.454,1.113,1.113,0,0,1,.744.924.8.8,0,0,0,.962.744c1.139-.153,1.157-1.237.019-1.168-.9.054-.9.048-.006-.249a7.051,7.051,0,0,1,2.383-.156,39.385,39.385,0,0,0,4.165.049c3.844-.141,13.452-.038,17.807.193,2.039.108,4.593.227,5.675.264,2.28.078,6.771.309,12.652.649,2.278.132,5.42.288,6.982.346,1,.038,2.153.115,3.317.216v6.107C1301.1,407.021,1300.246,406.836,1299.624,406.657Zm-165.3-2.425c-.458-.038-.7-.171-.54-.3a.878.878,0,0,1,.833.068c.275.152.238.239-.081.239Q1134.45,404.242,1134.328,404.232Zm88.623-1.377a.45.45,0,0,1-.405-.489c.029-.238.139-.422.244-.409s.287.233.405.489c.109.238.023.413-.191.413A.442.442,0,0,1,1222.952,402.855Zm3.723-1.931c.094-.76.366-.84.663-.194a.5.5,0,0,1-.274.651.339.339,0,0,1-.141.034C1226.745,401.414,1226.638,401.223,1226.675,400.924Zm1.722-.547a1.116,1.116,0,0,1,1.057-.142c.311.148.09.32-.514.4a3.889,3.889,0,0,1-.483.041C1228.148,400.677,1228.136,400.581,1228.4,400.377Z" transform="translate(-939.926 -398.468)"/></svg>