<svg xmlns="http://www.w3.org/2000/svg" width="809.145" height="305.727" viewBox="0 0 809.145 305.727"><defs><style>.a{fill:#f3aac7;}</style></defs><path class="a" d="M205.906,1.114c0,.613-.19,1-.423.854s-.713.433-1.067,1.282c-.374.9-.951,1.543-1.374,1.543-.576,0-.623.128-.222.611s.377.655-.056.8-.423.359.091.985c.5.606.524.839.109.979a.766.766,0,0,0-.545.608c0,.234.194.305.431.159s.32.022.171.41c-.143.372-.036.676.238.676.363,0,.371.236.031.871-.375.7-.331.872.22.872s.581.112.14.584a.9.9,0,0,1-1.517-.748c.037-.21-.162-.466-.443-.57-.336-.124-.424.142-.258.776.139.53.074.86-.143.733a1.894,1.894,0,0,0-1.267.089c-.691.254-.488.386.98.637,1.155.2,1.852.548,1.852.932,0,.338.381.615.847.615a2.06,2.06,0,0,1,1.443.851c.588.839,2.807,1.984,3.527,1.82a14.986,14.986,0,0,1,2.832.537,47.369,47.369,0,0,0,5.187.929,7.8,7.8,0,0,1,2.967.7,1.651,1.651,0,0,0,1.2.4,13.216,13.216,0,0,1,3.569,1.3,14.312,14.312,0,0,0,3.351,1.3,1.317,1.317,0,0,1,1.006.446c.148.24.048.436-.222.436-.6,0-.386,1.949.222,1.991a22.032,22.032,0,0,1,2.346.577,7.357,7.357,0,0,0,2.974.28,5.479,5.479,0,0,1,2.447.16c.761.235,2.478.641,3.815.9,3.67.718,5.63,1.318,5.63,1.724s-22.354.127-27.889-.366c-2.916-.26-4.028-.189-5.229.333-.839.365-1.623.691-1.743.726s-.791.3-1.491.589a3.346,3.346,0,0,1-1.961.258c-.378-.147-6.178-.338-12.889-.424s-13.084-.352-14.162-.59-4.311-.662-7.182-.94a33.527,33.527,0,0,1-6.055-.952,6.973,6.973,0,0,0-2.962-.242,4.311,4.311,0,0,1-2.363-.176.464.464,0,0,0-.641-.129c-.223.138-.406.043-.406-.211s-.147-.423-.327-.375c-.725.192-4.467-.6-4.467-.946,0-.425-3.292-1.132-4.536-.974a2.32,2.32,0,0,1-1.651-.773,3.015,3.015,0,0,0-1.564-.93c-.41-.028-1.922-.094-3.36-.145a22.315,22.315,0,0,1-4.358-.6,31.6,31.6,0,0,0-3.389-.748c-.905-.135-1.54-.417-1.41-.627.406-.656-.563-.828-8.134-1.444-.4-.033-.7-.245-.654-.472s-.314-.528-.794-.669a8.853,8.853,0,0,1-1.972-1c-.792-.538-2.442-.827-5.883-1.029-2.63-.154-5.236-.26-5.79-.235a5.778,5.778,0,0,1-2.346-.646c-.76-.393-1.455-.519-1.607-.292-.375.557-1.909,1.093-1.573.549.354-.573-.07-.544-1.23.085-2.342,1.269-13.428.3-14.584-1.269-.358-.487-.4-.816-.109-.912a.648.648,0,0,0,.451-.536c0-.212-.274-.281-.61-.152a.763.763,0,0,1-.9-.232c-.423-.684,2.189-.585,3.6.137a13.154,13.154,0,0,0,3.138.923c1.079.176,2.3.384,2.724.462s.763-.115.763-.429c0-.4.542-.528,1.852-.426,1.432.112,1.677.044,1.08-.3-.424-.246-.674-.606-.554-.8.259-.419-2.178-.839-6.894-1.191-2.648-.2-3.513-.119-3.806.344-.275.435-.382.45-.386.055-.01-.8-2.629-.673-3.567.176-.438.4-.8.536-.8.309,0-.25-1.414-.294-3.6-.113-1.977.165-5.066.408-6.863.54a24.356,24.356,0,0,0-4.7.747,5.867,5.867,0,0,1-2.516.3c-.6-.114-1.208-.007-1.359.237-.169.273-.055.309.3.092s.465-.181.291.1c-.328.531-2.406,1.012-4.866,1.126-1.451.067-1.751.238-1.79,1.017-.042.837.258.972,2.832,1.27a28.971,28.971,0,0,0,3.969.24l1.089-.094-1.156.628c-2.005,1.09-3.96,1.55-7.777,1.829a46.8,46.8,0,0,0-6.536.983c-3.583.9-16.016.969-16.558.092a.627.627,0,0,0-.852-.232c-.728.45-8.747.6-8.474.16.255-.413.19-.42-5.51-.593a99.245,99.245,0,0,1-11.746-1.03c-2.747-.346-4.353-.148-5.923.731-.657.368-.516.577,1.068,1.577A12.244,12.244,0,0,0,11.9,23.108c4.019.508,7.854,1.148,10.617,1.772,1.653.373,1.982.6,1.809,1.266-.124.475-.464.713-.822.575-.336-.129-.611-.017-.611.248s.343.485.763.489c.652.006.668.068.109.429-.413.267-.458.425-.123.429.293,0,.418.3.279.663-.175.457.26.883,1.43,1.4l1.682.747-4.258.263c-2.342.145-5.43.243-6.863.219s-2.606-.02-2.606.01.392.507.872,1.059.872.872.872.71.442-.006.981.348a15.326,15.326,0,0,0,4.212,1.144,35.582,35.582,0,0,1,4.956,1.11,12.38,12.38,0,0,0,3.305.624c2.427.024,8.54,1.613,6.772,1.761A12.487,12.487,0,0,0,34,38.613c-.479.11-1.111.253-1.4.317-1,.219-1.061.643-.14.935a7.052,7.052,0,0,1,2.057,1.347,3.929,3.929,0,0,0,2.111,1.056,2.149,2.149,0,0,1,1.47.6c.409.492.049.65-2.016.885-1.382.157-3.1.381-3.821.5-1.711.276-8.517.236-8.985-.053-.631-.39-5.613-.574-5.613-.207a1.766,1.766,0,0,0,.654.893,1.743,1.743,0,0,1,.654,1c0,.25-.129.326-.287.168s-.55-.068-.872.2-.585.3-.585.069-.294-.416-.654-.416c-1.047,0-.759.467.679,1.1,1.617.716,1.386,1.016-1.222,1.584-2.378.518-2.832,1.33-1.127,2.017,1.765.711,10.056,1.635,14.8,1.647a35.037,35.037,0,0,1,5.2.3l1.156.29-1.242,1.016a4.557,4.557,0,0,1-1.978,1.031c-1.033.022-1.347.715-.793,1.75.585,1.093,4.375,3.059,5.9,3.059.642,0,1.013.188.86.436a1.383,1.383,0,0,1-1.069.436,1.743,1.743,0,0,0-1.4,1.852c.164.777-6.749-.092-7.328-.921-.442-.633-11.569-2.287-12.663-1.882L15.294,60l1.013.542a58.471,58.471,0,0,0,8.045,1.715c7.077,1.18,8.8,2.013,4.162,2.013a6.308,6.308,0,0,0-3.162.6c-.605.5-1.443.513-4.974.082-6.492-.793-10.264-1.337-11.149-1.609-.586-.18-.762-.051-.654.479.159.772,1.507,1.678,3.62,2.433,1.819.65.688,1.223-1.638.83-1.008-.17-2.716-.448-3.795-.617L4.8,66.165,6.438,67.73a13.735,13.735,0,0,1,1.634,1.722,12.452,12.452,0,0,1-2.7.461C1.856,70.311-.024,71.3,0,72.727c.013.755,2.832,1.767,5.455,1.959,1.08.079,3.532.455,5.449.836a60.888,60.888,0,0,0,6.537.888c1.678.108,4.227.4,5.665.655,8.929,1.568,10.939,1.954,11.323,2.174.237.136-.45.461-1.525.723s-1.955.732-1.955,1.048c0,.733,4.392,2.326,8.378,3.038,1.939.347,3.374.862,3.843,1.381a7.631,7.631,0,0,0,3.322,1.334c3.274.644,3.186,1.255-.372,2.57-.763.282-1.3.739-1.191,1.016.246.631,2.266,1.593,3.344,1.593.446,0,.689.2.541.436s-1.728.436-3.512.436c-2.938,0-4.118.446-2.7,1.019,1.269.512-5.09.235-8.231-.359-3.912-.739-6.04-.43-6.04.878,0,.6,1.138,1.395,4.277,2.976,2.957,1.489,4.1,2.268,3.7,2.524-.753.486-.01.983,2.913,1.948,4.125,1.363,7.4,3.646,6.968,4.863-.293.831,1.314,1.284,7.957,2.243a42.019,42.019,0,0,1,7.348,1.537,13,13,0,0,0,3.48.927c3.238.388,9.433,1.955,10.4,2.632a4.68,4.68,0,0,0,2.179.63,7.178,7.178,0,0,1,2.191.405c.694.3.516.388-.872.439-3.714.137-5.685.5-6.178,1.148a1.33,1.33,0,0,1-1.525.393c-.871-.239-.9-.211-.242.2a2.591,2.591,0,0,0,1.525.359,2.243,2.243,0,0,1,1.341.243,1.861,1.861,0,0,0,1.661-.208,1.577,1.577,0,0,1,1.9-.06c.522.326.921.358,1.088.088A5.651,5.651,0,0,1,81.2,117.2a9.351,9.351,0,0,0,3.569-.638c1.305-.746,1.743-.8,1.743-.218,0,.24-.306.436-.679.436s-.572.174-.441.386-.172.494-.674.625-.827.5-.723.812c.192.582,2.144.923,8.182,1.43,5.455.458,6.972.7,6.972,1.132,0,.225-.294.409-.654.409s-.654.387-.654.872c0,.639.291.872,1.089.872,1.253,0,1.467.671.31.974a32.239,32.239,0,0,1-4.9-.029c-6.6-.373-9.246-.249-10.628.5a2.991,2.991,0,0,1-1.555.518c-.154-.095-.2.379-.1,1.054.216,1.472-.4,1.7-4.871,1.825-2.678.074-2.886.14-1.955.622,1.531.793,7.147,1.932,10.5,2.128a9.564,9.564,0,0,1,3.91.865c1.238.867,1.984.878,2.821.041a4.043,4.043,0,0,1,2.474-.644,154.73,154.73,0,0,1,16.916,1.72c1.528.447,1.574.519,1.252,1.948a2.416,2.416,0,0,0,.116,1.935c.311.311.3.636-.043,1.046-1.041,1.254.283,1.514,6.643,1.3,4.941-.164,6.483-.074,7.485.437,1.061.541,5.843,1.287,9.106,1.421.479.02,1.852.211,3.05.425l2.179.39-1.961.317a52,52,0,0,1-7.19.095c-2.876-.122-6.994-.2-9.151-.164a80.665,80.665,0,0,1-9.369-.652,141.926,141.926,0,0,0-14.672-1.3,3.481,3.481,0,0,1-1.942-.37,2.824,2.824,0,0,0-1.634-.436c-.748-.031-1.36-.218-1.36-.416s-.441-.237-.98-.085c-.768.216-.839.176-.327-.182.563-.394.548-.459-.109-.464-.419,0-.763-.225-.763-.493,0-.3-.414-.214-1.074.218-1.193.782-1.716.9-1.353.318.131-.212-.151-.488-.628-.613-.5-.13-.867-.011-.867.277s-.688.5-1.634.5c-1.039,0-1.6-.191-1.532-.524.07-.361-.4-.46-1.506-.318-1.814.232-3.6,1.248-3.614,2.05,0,.343-.158.3-.429-.119-.328-.507-.424-.379-.429.573-.009,1.572.709,2.913,1.56,2.913.365,0,.543.2.395.436s.085.451.519.469a5.941,5.941,0,0,1,3.319.961c.871.57,2.916.351,2.916-.313,0-.12-.263-.117-.584.006a1.252,1.252,0,0,1-1.2-.533c-.53-.652-.529-.706,0-.384.476.287.548.188.312-.426a.926.926,0,0,1,.253-1.154c.834-.529,1.536-.429.777.11-.492.35-.239.408,1.02.232a4.546,4.546,0,0,1,2.47.265,1.025,1.025,0,0,0,1.435-.032c.515-.427.7-.38.976.244a2.619,2.619,0,0,1,.269,1.1c-.038.18.209.327.548.327a.855.855,0,0,1,.783.5c.091.274.741.56,1.445.635a2.868,2.868,0,0,1,1.765.8c.268.366.646.522.84.346s.23.023.08.443c-.337.939.5,1.027.856.09.228-.6.352-.587,1.076.068.773.7.818.694.824-.09.006-.7.075-.724.429-.177.63.974.54,1.187-.626,1.479-.74.186-1.041.545-.993,1.184.077,1.018,1.595,1.779,3.344,1.676,1.63-.1,3.069.465,3.069,1.2,0,.471.433.609,1.634.521a13.872,13.872,0,0,1,5.774.958c.528.3.486.373-.218.4-.479.018-1.852.126-3.05.238a49.973,49.973,0,0,1-10.412-.023c-1.221-.247-1.612-.205-1.394.148.187.3.07.4-.308.256-.358-.138-.937.261-1.4.963-.561.857-.635,1.248-.259,1.373.353.118.268.378-.26.792-.716.562-.67.6.522.389.719-.125,1.062-.112.763.03-1.1.52-.5,1.056,1.2,1.056,1.1,0,1.745-.2,1.75-.545,0-.4.106-.389.381.047.235.371.476.426.649.148.293-.473.847-.436,2.209.147a7.56,7.56,0,0,0,2.281.393c1.806.037,2.392,1.118.606,1.118-.706,0-1.356.283-1.5.654-.169.441.021.654.585.654a1.541,1.541,0,0,1,1.185.545c.5.781,2.276,1.706,2.733,1.424a.493.493,0,0,1,.662.2,2.074,2.074,0,0,0,1.476.443,16.85,16.85,0,0,1,3.569.708c2.055.614,2.239.755,1.4,1.07a54.977,54.977,0,0,1-8.086.3,47.752,47.752,0,0,0-7.688.293.611.611,0,0,1-.868-.131c-.35-.567-13.9-1-14.233-.451-.118.191-.519.231-.891.089-.458-.176-.518-.357-.187-.562.269-.166-.107-.3-.835-.3s-1.324.187-1.324.417-.3.168-.664-.135-.8-.412-.974-.241.178.681.773,1.134l1.083.824-1.089-.209c-.955-.184-.982-.158-.218.2a5.641,5.641,0,0,0,4.533-.136c1.18-.654,2.657-.438,2.657.388,0,.38.86.551,2.832.563,1.777.01,2.832-.162,2.832-.463,0-.263.245-.158.545.235.393.516,1.573.792,4.249.994a55.468,55.468,0,0,1,6.454.894,29.64,29.64,0,0,0,4.14.657,19.475,19.475,0,0,1,3.568.637c2.043.558,1.812.58-3.7.357-3.236-.131-6.177-.241-6.536-.245s-4.87-.467-10.022-1.029-10.771-1.081-12.484-1.155-3.025-.28-2.916-.46-.646-.328-1.678-.329a49.77,49.77,0,0,1-5.8-.633c-3.7-.6-12.4-1.209-11.218-.792.3.106.437.373.3.592s.3.408.978.419a7.384,7.384,0,0,1,2.749.848c.839.455,1.917,1.01,2.4,1.233,1.576.735,27.276,4.986,33.336,5.515,1.8.157,6.994.673,11.548,1.148s10.564,1.053,13.356,1.286a48.565,48.565,0,0,1,7.173,1.054c1.515.456,2.18.5,2.4.145.275-.445,4.86-.323,10.409.277.839.091,3.486.288,5.883.437a111.387,111.387,0,0,1,14.52,2,5.309,5.309,0,0,0,2.291.174,41.248,41.248,0,0,1,6.747.708c5.158.781,6.524.861,7.336.427s1.861-.363,5.75.4c6.475,1.276,14.923,2.935,19.133,3.757,1.917.374,4.7.959,6.19,1.3a24.488,24.488,0,0,0,4.14.616,13.823,13.823,0,0,1,3.4.625c1.818.582,5.539,1.227,15.469,2.684,5.1.748,6.129.921,11.33,1.9,2.4.453,6.319,1.147,8.715,1.543l5.665.935c5.088.841,6.057.825,7.069-.114a3.1,3.1,0,0,0,.993-1.416c0-.272.147-.471.327-.443a9.932,9.932,0,0,0,1.323,0c.833-.043.924-.185.56-.866-.533-1-.107-1.534.692-.872.9.746.694.075-.34-1.114a4.859,4.859,0,0,0-2.633-1.352c-1.463-.247-1.63-.383-1.162-.948.7-.847.109-.9,28.033,2.479,1.917.232,5.349.516,7.626.631s6.395.415,9.151.668,6.384.536,8.062.631a30.983,30.983,0,0,1,4.773.624,56.853,56.853,0,0,0,8.355.478c3.648.015,6.892.114,7.21.221.784.264,11,.8,13.425.7a5.27,5.27,0,0,0,2.62-.68c.821-.743,2.913-.818,12.639-.45a63.217,63.217,0,0,1,9.925.928c1.759.49,4.677.624,12.419.571,5.566-.039,14.826.078,20.578.259a200.509,200.509,0,0,0,23.1-.153c7.809-.339,12.315-.353,19.173-.06,1.2.051,1.836.183,1.416.292s-.763.4-.763.655c0,.3,1.223.369,3.6.2,1.977-.14,7.909-.453,13.182-.7s12.038-.643,15.034-.889c12.036-.988,16.626-1.336,22.877-1.735,15.634-1,23.875-1.4,32.464-1.567,3.954-.079,8.857-.277,10.894-.44s5.077-.279,6.754-.258,5.011-.154,7.408-.389,10.159-.515,17.249-.621,13.757-.383,14.816-.617a46.861,46.861,0,0,1,5.348-.661c1.883-.13,4.04-.337,4.793-.46a105.776,105.776,0,0,1,12.482-.889c5.18-.16,10.213-.542,17.648-1.343,1.2-.129,2.865-.289,3.7-.356s3-.247,4.793-.4,4.837-.4,6.754-.546a33.288,33.288,0,0,0,3.7-.4,19.741,19.741,0,0,1,2.7-.4,20.542,20.542,0,0,0,3.116-.508,29.548,29.548,0,0,1,4.494-.375c5.824-.2,5.817-.195,5.817-.9,0-.359.208-.654.461-.654s.32.229.146.51c-.215.348-.073.417.446.218a5.778,5.778,0,0,1,1.722-.292c.649,0,.982-.283,1.027-.871.078-1.042-.158-1.092-1.032-.218-.912.912-1.932.844-1.626-.109.151-.469.1-.575-.123-.276-.251.332-1.478.394-3.854.2a58.778,58.778,0,0,0-12.855.392c-2.277.256-5.218.572-6.536.7a25.452,25.452,0,0,0-2.905.4.682.682,0,0,1-.762-.495c-.188-.489-.6-.584-1.6-.366a50.691,50.691,0,0,1-6.72.873,24.231,24.231,0,0,0-3.311.454c-.305.188-6.134.219-14.119.075a47.222,47.222,0,0,0-11.3.789c-1.5.356-12.009.509-12.009.176a7.67,7.67,0,0,1,2.941-.627c1.618-.173,3.334-.392,3.813-.487a164.46,164.46,0,0,1,19.609-1.619,14.229,14.229,0,0,0,3.511-.384c.421-.27,13.765-1.31,14.481-1.129a35.155,35.155,0,0,0,3.578-.226c2.779-.259,9.876-.781,11.657-.857.644-.027.72-.59.129-.955-.424-.262-3.709-.323-6.681-.123a3.13,3.13,0,0,0-2,.684c-.263.427-1.012.5-2.925.278a18.467,18.467,0,0,1-2.863-.469c-.16-.1-.589.124-.953.488s-.765.493-.892.288c-.246-.4-9.041-.229-11.59.224a32.261,32.261,0,0,1-3.286.36,8,8,0,0,0-2.723.605c-.77.412-.963.4-.963-.067,0-.342-.583-.629-1.416-.7a82.17,82.17,0,0,0-12.092.066c-2.75.229-3.925.2-3.5-.085,1.718-1.15-1.5-1.717-6.524-1.148-4.449.5-5.245.531-7.168.239a9.215,9.215,0,0,0-3.092.071,127.648,127.648,0,0,1-15.886,1.45c-2.037.03-4.979.19-6.536.353s-4.7.4-6.972.522-7.669.512-11.983.864-10.731.772-14.259.934c-5.75.262-6.444.218-6.694-.433-.237-.619-.995-.723-5.132-.707a53.365,53.365,0,0,1-6.814-.335l-1.961-.354,3.268-.486a42.428,42.428,0,0,1,4.793-.474c.839.007,4.27-.292,7.626-.663s9.728-.894,14.162-1.161,8.5-.58,9.031-.7,4.945-.4,9.8-.633c8.734-.419,14.853-.762,19.511-1.091,1.318-.093,5.84-.368,10.049-.611s7.935-.529,8.279-.635,1.019-.342,1.5-.524a11.609,11.609,0,0,1,2.547-.451,3.5,3.5,0,0,0,2.18-.812c.4-.549,1.536-.714,5.515-.8a33.671,33.671,0,0,0,5.445-.381,18.828,18.828,0,0,1,3.7-.524c8.593-.672,17.183-1.218,21.134-1.344,2.4-.076,7.5-.48,11.33-.9s8.737-.826,10.894-.906c14.929-.551,26.852-1.244,33.118-1.926,2.157-.235,5.938-.553,8.4-.707a17.712,17.712,0,0,0,4.71-.653c.127-.2-.419-.388-1.212-.408s-2-.076-2.672-.125-1.315.049-1.42.217-.914.106-1.8-.138a15.243,15.243,0,0,0-4.463-.157c-1.569.158-9.912.364-18.54.458s-18.923.3-22.877.452c-7.049.276-9.046.107-4.422-.373a10.577,10.577,0,0,0,2.543-.453c.311-.311-1.283-1.08-2.6-1.257-1.54-.206-2.026-.758-.709-.806.579-.021,3.6-.221,6.718-.444s9.244-.522,13.617-.664c7.19-.233,7.953-.331,7.953-1.021,0-.958,1.754-1.185,12.326-1.593,4.263-.164,7.853-.464,7.978-.666a4.074,4.074,0,0,1,2.137-.368c3.58,0,2.576-1.2-1.821-2.184a17.165,17.165,0,0,0-3.7-.423c-5.307.294-3.915-.564,2.039-1.257,2.4-.279,5.73-.6,7.408-.718s4.717-.407,6.754-.645,6.155-.564,9.151-.722c3.689-.195,5.588-.472,5.883-.858.241-.316,1.8-.7,3.486-.855a8.614,8.614,0,0,0,3.486-.816,9.157,9.157,0,0,1,3.618-.826,12.968,12.968,0,0,0,4.159-.934c.616-.4,2.5-.711,5.1-.832,5.6-.261,9.985-.752,10.229-1.145.256-.413-3.56-1-4.146-.642-.24.149-.437.084-.437-.143s.686-.542,1.525-.7c1.656-.311,1.969-.853.763-1.321-1.424-.552.569-1.426,5.049-2.215,3.763-.663,6.14-1.481,4.407-1.518-1.629-.034.886-.8,3.5-1.07a10.735,10.735,0,0,0,3.332-.709,11.656,11.656,0,0,1,3.262-.864c4.212-.678,4.166-1.223-.13-1.561a7.729,7.729,0,0,1-3.514-.9c-.619-.554-1.376-.621-4.14-.363-5.619.525-6.731.423-7.575-.7-.413-.547-.666-1.132-.562-1.3a10.322,10.322,0,0,1,3.125-.61,12.924,12.924,0,0,0,3.373-.647,8.636,8.636,0,0,1,2.506-.65c3.124-.465,2.483-1.081-1.126-1.081a11.562,11.562,0,0,1-3.526-.327,14.937,14.937,0,0,0-4.062-.327c-2.6,0-3.789-.166-3.919-.545s.339-.545,1.483-.547a15.249,15.249,0,0,0,3.2-.4,40.654,40.654,0,0,1,5.214-.675,15.335,15.335,0,0,0,4.18-.683c.27-.224.606-.293.745-.154s.71.091,1.267-.108c.782-.28.318-.425-2.037-.64a33.548,33.548,0,0,1-7.626-1.53c-1.064-.407.591-.854,5.556-1.5a20.7,20.7,0,0,0,4.466-.841,7.906,7.906,0,0,1,2.833-.078c2.276.145,2.832.055,2.832-.457a2.873,2.873,0,0,0-2.213-2.073c-.512.006-.506.08.034.429.556.359.538.423-.122.429a1.166,1.166,0,0,1-1.036-.67c-.221-.576-1.009-.643-5.324-.448-5.408.243-6.737-.045-5.741-1.245,1.669-2.011,8.473-4.166,13.151-4.166,2.826,0,4.3-.529,4.3-1.54,0-.507-.7-.636-3.377-.628a26.505,26.505,0,0,0-5.12.469,82.788,82.788,0,0,1-10.038.656c-8.067.192-8.3.173-8.361-.679a1.472,1.472,0,0,1,1.4-1.593c.24-.039,2.12-.388,4.178-.776a152.184,152.184,0,0,1,18.836-2.435c5.671-.364,7.6-.863,7.019-1.811a.478.478,0,0,0-.66-.136c-.229.142-.363,0-.3-.32s-.219-.55-.638-.517-.664-.093-.549-.279-.456-.464-1.27-.616c-1.759-.33-2.176-1.115-1.275-2.4.48-.685.531-1.094.189-1.506-.562-.677-.195-1.139.9-1.139.439,0,.8-.082.8-.182a5.039,5.039,0,0,1,.289-.936c.266-.692-.027-.73-3.6-.465-2.136.159-4.62.406-5.518.548-1.3.206-1.634.12-1.634-.421a1.412,1.412,0,0,0-.7-1.073c-1-.558-.4-3.069.852-3.574.894-.361.9-.382.068-.437-.872-.058-.872-.058,0-.433.85-.365-.337-.521-4.793-.63-1.859-.045-3.268-.632-3.268-1.36,0-.389-.451-.627-1.2-.63a10.481,10.481,0,0,1-2.189-.271c-.929-.249-.943-.3-.218-.852a3.879,3.879,0,0,1,1.965-.6,13.549,13.549,0,0,0,4.067-1.539,12.849,12.849,0,0,1,4.3-1.525c2.641,0,6.76-.555,6.557-.883-.111-.179.132-.3.54-.266a.88.88,0,0,0,.9-.691c.2-.959-2.375-2.612-3.7-2.378-.531.093-1.037-.044-1.124-.305-.205-.616-5.291-.791-7.325-.251a83.114,83.114,0,0,1-9.914.535c-7.758.11-10.045-.113-7.145-.695.659-.132,2.081-.44,3.159-.684a21.925,21.925,0,0,1,3.813-.463c1.019-.01,1.852-.215,1.852-.455s.307-.436.682-.436a4.162,4.162,0,0,0,1.577-.479c.885-.474.883-.484-.138-.993-1.788-.891-1.234-1.732,1.771-2.687,1.541-.49,2.894-1.176,3.007-1.525a1.923,1.923,0,0,1,.589-.887c.666-.437-.131-1.782-.886-1.492-.381.146-.573.146-.426,0s-.227-.762-.831-1.366a3.94,3.94,0,0,0-2.963-1.171c-1.026-.04-1.786-.2-1.689-.357s-1.7-.189-3.994-.071c-3.335.171-4.317.081-4.9-.447-.812-.733-5.091-1.036-7.323-.517-.852.2-1.474.137-1.66-.163a1.753,1.753,0,0,0-1.325-.48c-1.311,0-2.407-.418-2.407-.918,0-.214.284-.389.632-.389a1.323,1.323,0,0,0,1-.661c.229-.41,1.933-.965,4.488-1.462,5.035-.98,8.741-2.477,8.39-3.39a.676.676,0,0,0-.865-.4c-.341.131-.51.061-.377-.156s-.271-1-.9-1.751c-.841-1-1.374-1.284-2.018-1.08-.486.154-.767.1-.631-.119s-.437-.416-1.27-.44a29.589,29.589,0,0,1-4.574-.793l-3.059-.75.973-1.036a3.52,3.52,0,0,1,1.376-1.036,8.266,8.266,0,0,0,1.9-.71c1.434-.68,1.468-.751.833-1.72-.417-.637-.5-1.111-.224-1.281a.525.525,0,0,0,.159-.723c-.18-.292-.415-.242-.661.139s-.5.435-.708.147a5.858,5.858,0,0,0-1.634-1.075l-1.307-.63,1.379-.148c1.493-.16,2.292-1.279,1.209-1.694a1.032,1.032,0,0,0-.906-.014c-.132.132-.894-.126-1.691-.574a12.22,12.22,0,0,0-3.107-1.125,5.356,5.356,0,0,1-2.243-.9c-.765-.764-1.064-.748-5.113.288-3.634.929-4.658.843-6.149-.52-.841-.769-1.18-.807-3.457-.386-2.987.552-8.613.623-8.293.1a11.424,11.424,0,0,1,3.4-.9c4.454-.76,4.956-.923,4.224-1.375-1.268-.784,4.41-2.633,9.958-3.245a8.481,8.481,0,0,0,2.935-.642c.116-.188-.2-.865-.7-1.5-.844-1.073-.86-1.221-.212-1.937a3.161,3.161,0,0,0,.7-1.014c0-.539-7.379.236-9.8,1.03-3.488,1.141-10.551,1.973-11.2,1.321-.345-.345-.348-.642-.011-1.048.456-.549,1.154-.784,6.966-2.341,1.812-.486,2.723-.949,2.723-1.386,0-.552-.514-.61-3.233-.363-2.071.188-3.333.131-3.512-.158-.153-.248-.039-.451.255-.451s.433-.1.309-.226c-.292-.292-6.464,1-7.077,1.485-.482.379-6.846,1.359-8.2,1.263-.419-.03-.763-.3-.763-.6a3.817,3.817,0,0,0-.225-1.133c-.214-.558,5.107-1.686,14.278-3.027a20.979,20.979,0,0,0,4.084-1.026,9.321,9.321,0,0,1,2.942-.662c1.974,0,4.808-.867,4.35-1.324a26.548,26.548,0,0,0-5.9-.51c-3.031-.068-5.479-.157-5.439-.2s1.041-.455,2.226-.92c2.063-.81,2.112-.868,1.169-1.372-.738-.4-1.527-.41-3.156-.061-2.652.569-3,.576-3,.065,0-.221.586-.53,1.3-.687,2.382-.523,1.866-1.091-.992-1.091a10.894,10.894,0,0,1-4.162-.684,3.458,3.458,0,0,0-2.335-.378c-1.243.395-21.7.545-21.463.158.507-.82-5.21-.816-10.087.008a169.037,169.037,0,0,1-23.7,2.673c-3,.032-7.506.328-10.022.657s-7,.8-9.963,1.048-5.512.525-5.665.617a25.952,25.952,0,0,1-3.546.446c-1.8.153-3.955.361-4.793.463-1.746.211-9.7.654-15.469.863-4.176.151-10.521.551-14.816.936-1.438.129-7.027.318-12.419.42s-11.765.347-14.162.543-9.025.338-14.73.314c-8.627-.036-10.442-.151-10.785-.686s-.472-.55-.8-.034q-.391.607-1.68.35a2.334,2.334,0,0,0-1.765.219,3.728,3.728,0,0,1-1.916.569,13.187,13.187,0,0,0-2.31.35c-2.611.773-5.332,1-6.428.531-.88-.375-3.076.068-2.773.559.112.181-1.988.382-4.667.446-7.213.173-7.96.253-8.777.93-.664.551-.73.525-.6-.229.1-.575-.063-.8-.506-.693a9.148,9.148,0,0,1-1.634.163c-.539,0-.98.159-.98.343s-.316.456-.7.6c-.51.2-.631.083-.441-.412.18-.469.094-.575-.278-.338a21.222,21.222,0,0,1-4.679.48c-4.788.158-4.077.156-26.581.077-9.467-.033-18.425.081-19.907.254a11.723,11.723,0,0,1-3.427.034c-.742-.285-14.977-.847-19.35-.764-3.42.065-7.3-1.946-5.142-2.665.322-.107.1-.416-.545-.755a4.844,4.844,0,0,1-1.33-.942c-.481-.731-4.181-1.139-5.232-.577-.662.354-2.417.482-5.176.375-2.3-.088-9.836-.264-16.757-.391s-13.059-.349-13.641-.5a42.812,42.812,0,0,0-5.5-.332,20.3,20.3,0,0,1-5.311-.556,17.541,17.541,0,0,0-5.575-1.092,9.421,9.421,0,0,1-3.793-.138,10.524,10.524,0,0,0-2.4-.257c-.479.04-1.264.108-1.743.15a46.792,46.792,0,0,1-5.011-.435c-2.277-.281-4.987-.508-6.024-.5a5.38,5.38,0,0,1-2.4-.4,6.04,6.04,0,0,0-1.929-.715c-1.159-.248-1.416-.169-1.416.435,0,.653-.361.7-3.159.429-1.738-.17-6.3-.354-10.131-.409a71.1,71.1,0,0,1-9.319-.612c-1.291-.281-2.443-.512-2.559-.512s.032-.294.331-.654a3.035,3.035,0,0,1,2.014-.654,3.147,3.147,0,0,0,1.472-.182,4.453,4.453,0,0,1,.264-.872c.363-.945-.864-.9-1.832.069-.549.549-.809.608-.94.215-.1-.3-.361-.433-.58-.3s-.4.088-.4-.106-.441-.377-.98-.406-3.53-.275-6.645-.547-9.391-.572-13.944-.668-8.77-.282-9.369-.413c-2.03-.445-13.192-1.478-19.173-1.774-11.083-.548-19.486-2.133-21.219-4A3.581,3.581,0,0,0,236.1,3.011c-5.639-.183-13.47-.771-16.906-1.268-1.438-.208-3.961-.5-5.606-.646s-3.976-.454-5.18-.682S206.152,0,206.065,0s-.158.5-.158,1.115Zm0,3.965c0,.477-.193.512-.855.158-.511-.273-.754-.723-.6-1.116.195-.507.391-.543.855-.158a1.721,1.721,0,0,1,.6,1.116Zm73.425,6.481c1.7.611,1.662.62-1.961.408-8.3-.486-10.894-.733-10.894-1.033,0-.568,11.021-.032,12.855.625ZM76.922,16.823c0,.094-.294.171-.654.171s-.654-.19-.654-.422.294-.309.654-.171S76.922,16.728,76.922,16.823ZM108.514,18.3c.152.246-.2.436-.82.436a1.863,1.863,0,0,1-1.359-.436c-.152-.246.2-.436.82-.436A1.863,1.863,0,0,1,108.514,18.3Zm-20.7,2.23c0,.45-.522.492-1.49.12-1.093-.42-.8-.943.4-.714C87.326,20.052,87.816,20.319,87.816,20.531Zm246.568.071c1.487.414,1.691.573.958.747-1.163.276-15.027-.307-22.457-.943-2.019-.173,13.573-.6,16.777-.454a26.045,26.045,0,0,1,4.722.651Zm15.105,1.341c.479.113-.4.19-1.961.171-3.718-.047-5.19-.447-2.832-.77a8.478,8.478,0,0,1,2.832.077C348.127,21.594,349.009,21.829,349.489,21.943ZM71.4,21.815c.9.026.891.049-.116.451-1.188.475-2.207.238-2.207-.512,0-.273.31-.377.689-.232A6.018,6.018,0,0,0,71.4,21.815Zm284.633.491c.117.117-.659.245-1.724.285a3.522,3.522,0,0,1-2.237-.414c-.212-.342.3-.427,1.724-.285a8.313,8.313,0,0,1,2.237.414Zm340.753,5.147c.167.27-.529.416-1.826.384-1.86-.046-1.949-.089-.788-.384C696.08,26.967,696.488,26.967,696.788,27.452Zm-671.64,6.4a.877.877,0,0,1-.835-.034c-.145-.145.113-.248.572-.229.508.021.611.124.263.263Zm5.147.574c.876.28.918.351.218.362a5.1,5.1,0,0,1-1.743-.362C27.66,33.947,28.806,33.947,30.3,34.424Zm5.847-.171a1.2,1.2,0,0,1,.689,1.048c0,.667-.274.749-1.852.552-2-.25-3.309-.993-1.747-.993a1.591,1.591,0,0,0,1.2-.436c.31-.5.735-.544,1.707-.171Zm707.925,7.579c0,.24-.343.433-.763.429-.652-.006-.668-.068-.109-.429C744.019,41.3,744.068,41.3,744.068,41.832ZM46.936,59.56a.877.877,0,0,1-.835-.034c-.145-.145.113-.248.572-.229.508.021.611.124.263.263Zm-3.568,1.271c0,.71-1.212.79-2.8.185-1.733-.659-1.322-1.123.843-.951C42.723,60.17,43.368,60.422,43.368,60.831Zm8.094-.314c-.435.7-1.993.884-1.993.23,0-.367.447-.613,1.115-.613C51.2,60.134,51.593,60.306,51.463,60.517Zm-3.3.488c.486.314.235.424-.98.429-.9,0-1.634-.189-1.634-.429C45.547,60.45,47.3,60.45,48.162,61.005Zm726.409,50.984a.436.436,0,1,1-.436-.436A.437.437,0,0,1,774.571,111.989Zm3.159,8.132a1.682,1.682,0,0,1-1.089,0c-.3-.121-.054-.22.545-.22s.844.1.545.22Zm-6.536,5.248a6.21,6.21,0,0,1-1.961,0c-.539-.1-.1-.189.98-.189S771.733,125.265,771.194,125.369Zm-20.154,3.518c0,.187-1.618.572-3.6.856s-4.067.653-4.644.819c-.651.188-.948.139-.782-.129a13.417,13.417,0,0,1,4.1-.986c2.108-.3,4.029-.617,4.268-.693l.545-.173c.06-.019.109.118.109.3Zm-635.554,4.018c.778.334.746.378-.3.405a1.956,1.956,0,0,1-1.442-.405C113.422,132.385,114.276,132.385,115.486,132.905Zm632.5,2.553c0,.206-1.968.6-4.373.871-5.418.616-6.391.629-5.837.075a21.248,21.248,0,0,1,5.207-.811c2.632-.213,4.834-.415,4.894-.449s.109.107.109.313ZM91.039,140.676c.123.2-.061.363-.41.363s-.634-.163-.634-.363a.39.39,0,0,1,.41-.363A.837.837,0,0,1,91.039,140.676Zm58.3.806a.877.877,0,0,1-.835-.034c-.145-.145.113-.248.572-.229.508.021.611.124.263.263Zm-67.624.574c0,.24-.343.433-.763.429-.652-.005-.668-.068-.109-.429C81.666,141.525,81.715,141.525,81.715,142.056Zm1.743.679c0,.106-.2.192-.436.192a.451.451,0,0,1-.436-.461c0-.254.2-.34.436-.192s.436.356.436.461ZM108.3,145.77a40.443,40.443,0,0,0,4.14.668,35.229,35.229,0,0,1,4.575.824c.839.253,1.525.444,1.525.424a21.354,21.354,0,0,1,4.467,1.4c2.248.956,2.39,1.69.327,1.69-1.065,0-1.525.2-1.525.654,0,.67,1.95.935,5.188.7a19.593,19.593,0,0,1,6.356,1.186c.688.4-1.511.851-4.38.9a13.364,13.364,0,0,1-5.421-1.046,16.982,16.982,0,0,0-3.678-1.1c-.715-.006-.769-.088-.265-.407a1.125,1.125,0,0,1,.98-.185c.191.118.348.029.348-.2,0-.39-.954-.666-4.282-1.237a2.473,2.473,0,0,1-1.685-.862c-.192-.5-.36-.512-.92-.057s-.643.444-.428-.131c.188-.5,0-.667-.681-.614a8.822,8.822,0,0,1-2.384-.323c-1-.274-1.637-.237-2.07.122-.351.291-.624.33-.624.088,0-.481-3.32-1.856-4.481-1.856a.687.687,0,0,1-.748-.6c0-.444.584-.565,2.288-.474a20.778,20.778,0,0,1,3.377.426Zm17.926,15.8a1.115,1.115,0,0,1-1.032-.27c-.323-.323-.153-.38.572-.191C126.351,161.267,126.548,161.464,126.222,161.573ZM652.558,163.3c0,.18-.6.368-1.323.419-.757.053-1.211-.087-1.063-.327C650.476,162.9,652.559,162.82,652.558,163.3ZM127.47,166.045l1.089.034-1.016.407c-1.148.46-3.123.106-3.123-.561,0-.243.438-.322.98-.177a10.964,10.964,0,0,0,2.07.3Zm521.6-.094c0,.2-.294.363-.654.363s-.654-.163-.654-.363.294-.363.654-.363S649.073,165.751,649.073,165.95Zm1.825-.065a.877.877,0,0,1-.835-.034c-.145-.145.113-.248.572-.229.508.021.611.124.263.263Zm-515.938.871a.877.877,0,0,1-.835-.034c-.145-.145.113-.248.572-.229.508.021.611.124.263.263Zm-48.887.574a.436.436,0,1,1-.436-.436A.437.437,0,0,1,86.073,167.33Zm11.33,1.143c0,.488-.818.06-1.053-.551s-.166-.625.389-.164A2.357,2.357,0,0,1,97.4,168.473Zm4.358-.053c0,.359-.077.654-.171.654s-.284-.294-.422-.654-.061-.654.171-.654S101.76,168.06,101.76,168.42Zm570.489,14.9a.877.877,0,0,1-.835-.034c-.145-.145.113-.248.572-.229.508.021.611.124.263.263Zm-401.216,8.823a.473.473,0,0,1-.146.651c-.218.135-.51-.048-.647-.406C269.969,191.678,270.624,191.475,271.034,192.139ZM64.2,5.119c-.251.3-.285.551-.076.558s.013.226-.435.487c-1.15.668-.131,1.241,2.122,1.193,1.177-.025,1.46-.129.872-.32-.83-.27-1.449-1.379-.763-1.367,1.279.023,2.2.593,2,1.235-.195.627-.143.622.405-.043.744-.9,4.06-1.069,4.347-.218.146.433.323.43.861-.014.848-.7,1.349-2.4.628-2.135a.666.666,0,0,0-.369.775c.1.41-.1.368-.665-.143-.644-.583-1.579-.712-4.641-.641-2.435.056-4,.287-4.29.633Zm-5.982.96A.73.73,0,0,0,58.6,7.407c.5,0,.933-1.23.526-1.482A1.039,1.039,0,0,0,58.217,6.08Zm9.22,3.506c-.482.772-.432.879.44.938.541.036,1.278.1,1.638.138,1.162.127,1.381-.272.614-1.119C69.16,8.473,68.121,8.489,67.436,9.586ZM331.4,12.828c0,.106.2.313.436.461s.436.062.436-.192a.45.45,0,0,0-.436-.461C331.6,12.636,331.4,12.723,331.4,12.828Zm5.113.3c.3.3.647.432.781.3s-.108-.378-.537-.541C336.141,12.646,336.091,12.7,336.518,13.126Zm-233.886,1.2a1.8,1.8,0,0,0,.672.94c.523.434.788.441,1.195.035s.378-.614-.127-.934c-.822-.52-1.739-.542-1.739-.042ZM594.6,18.3c0,.24.283.436.628.436a1.153,1.153,0,0,0,.9-.436c.148-.24-.134-.436-.628-.436S594.6,18.061,594.6,18.3Zm-7.408.463c0,.5,1.171.547,1.469.063.117-.19-.165-.374-.628-.409s-.841.121-.841.345Zm-432.144.7c-.392,1.022.205,1.172,1.712.429.786-.387,1.232-.734.993-.77C155.919,18.851,155.255,18.934,155.051,19.467Zm376.8,1.013c0,.24.086.436.192.436s.313-.2.461-.436.062-.436-.192-.436A.45.45,0,0,0,531.854,20.48Zm-6.282.377c-.188.3-.224.67-.08.814.39.39.815-.184.6-.816-.148-.443-.25-.442-.525,0Zm1.6-.089c-.892.36-.617.956.327.709.479-.125.871-.4.871-.613C528.368,20.449,528.028,20.422,527.169,20.768Zm208.91,2.181c-.5.5-.317,1.017.363,1.017a.656.656,0,0,0,.654-.654c0-.68-.515-.865-1.017-.363ZM195.286,25.618c-.117.19.169.374.637.409s.737-.12.6-.345A.708.708,0,0,0,195.286,25.618Zm3.928.749a1.176,1.176,0,0,0,.965.683c.394.018,1.6.122,2.677.23,1.414.142,1.779.073,1.307-.245-.539-.364-.546-.442-.036-.448.34,0,.5-.129.346-.278a10.182,10.182,0,0,0-2.89-.431C199.4,25.744,199.007,25.826,199.214,26.367ZM21.381,27.422c-.322.521.5,1.038,1.078.679.487-.3.167-1.085-.443-1.085A.872.872,0,0,0,21.381,27.422ZM25.5,38.756a.927.927,0,0,0,.431.676c.247.153.32-.022.171-.41C25.815,38.267,25.5,38.129,25.5,38.756Zm3.2.224c0,.349.167.531.37.406a.459.459,0,0,0,.12-.634C28.835,38.181,28.7,38.246,28.7,38.98ZM788.08,95.866c-.359.232-.458.422-.218.422a2.619,2.619,0,0,0,1.089-.422c.359-.232.458-.422.218-.422A2.619,2.619,0,0,0,788.08,95.866ZM72.129,128.2c0,.189.392.343.872.343s.872-.184.872-.409-.392-.379-.872-.343S72.129,128.016,72.129,128.2Zm18.248,6.4-1.022.827,2.608.346c1.434.19,3.637.357,4.895.371a4.723,4.723,0,0,1,2.288.321c0,.339,2.6-.336,3-.781.147-.162-.337-.179-1.077-.039a4.2,4.2,0,0,1-2.615-.416,9.757,9.757,0,0,0-3.558-.714c-1.258-.023-2.288-.2-2.288-.393,0-.625-1.185-.372-2.233.477Zm-5.493-.128a.876.876,0,0,0,.835.034c.348-.139.244-.242-.263-.263-.459-.019-.717.084-.572.229Zm-7.927,6.019c-.019.459.084.717.229.572a.877.877,0,0,0,.034-.835C77.08,139.884,76.977,139.987,76.956,140.495Zm11.9,3.663c.122.2-.18.7-.67,1.122-.877.751-.849.784,1.8,2.039,3.2,1.511,3.489,1.545,3.489.4a.771.771,0,0,0-.763-.878c-.618-.006-.646-.081-.146-.4a2.261,2.261,0,0,1,1.416-.236c.44.085.8-.046.8-.29s-.637-.409-1.416-.367-1.808.055-2.288.027c-.726-.042-.762-.121-.218-.473s.543-.423-.109-.429c-.419,0-.763-.2-.763-.442s-.306-.436-.679-.436-.58.161-.458.358Zm5.572,3.516c-.438.271-.421.453.082.87.705.585,1.267.074.782-.711A.617.617,0,0,0,94.429,147.674Zm-15.11,18.349c-.148.24.025.436.384.436a1.184,1.184,0,0,0,.923-.436c.148-.24-.025-.436-.384-.436A1.184,1.184,0,0,0,79.319,166.023Zm8.925,1.951c.628.756.88.835.88.274,0-.214-.322-.513-.715-.664-.6-.229-.625-.166-.165.389ZM704.1,175.006a6.025,6.025,0,0,0,3.864.554c.324-.205.393-.4.153-.423C705.773,174.869,703.9,174.808,704.1,175.006Zm-2.645.538c-.362.23-.091.356.763.356.728,0,1.324-.163,1.324-.363,0-.464-1.352-.459-2.087.007Zm-11.2.556c-1.865.418-6.394.717-14.855.983a27.432,27.432,0,0,0-6.2.664,14.558,14.558,0,0,1-4.863.378,39.114,39.114,0,0,0-3.931-.021,12.438,12.438,0,0,0,2.836,1.429c.146,0,.144-.2,0-.436s.286-.436,1.064-.436c.733,0,1.333.2,1.333.436a.451.451,0,0,0,.461.436c.254,0,.314-.245.134-.545-.242-.4-.164-.43.3-.1a2.766,2.766,0,0,0,1.5.391c.479-.027,1.913-.079,3.185-.114s2.222-.212,2.111-.391,1-.3,2.48-.263a10.571,10.571,0,0,0,3.445-.342q.763-.406.763.071c0,.262.237.33.527.151a18.714,18.714,0,0,1,4.249-.444c2.047-.065,3.722-.142,3.722-.171s.98-.115,2.179-.193a16.345,16.345,0,0,0,2.288-.238,4.679,4.679,0,0,1,1.307-.384c.347-.074-1.7-1.34-2.07-1.281-.12.019-1,.21-1.961.425ZM672.6,178.279c0,.21-.381.381-.846.381a1.441,1.441,0,0,1-1.081-.381c-.13-.21.251-.381.846-.381S672.6,178.069,672.6,178.279Zm23.309,1.26a.5.5,0,0,1-.679.192c-.223-.138-.406-.055-.406.185,0,.844.7.857,1.224.023.29-.464.439-.843.331-.843s-.319.2-.47.443Zm-9.328,1.7c-.459.459-.926.744-1.037.633a8.8,8.8,0,0,0-2.324-.348c-2.022-.139-4.528.759-3.893,1.394.509.509,3.518.39,4.175-.165a2,2,0,0,1,2.449-.037c.462.462,2.685.361,2.993-.137.419-.677-.2-2.175-.9-2.175a2.771,2.771,0,0,0-1.459.835Zm4.5-.332c-.186.3-.12.385.162.211a.541.541,0,0,1,.747.151c.406.657.949.536.949-.211,0-.768-1.406-.882-1.857-.151Zm-509.46,3.246a.876.876,0,0,0,.835.034c.348-.139.244-.242-.263-.263-.459-.019-.717.084-.572.229Zm87.905,12.374c0,.24.086.436.192.436s.313-.2.461-.436.062-.436-.192-.436A.45.45,0,0,0,269.527,196.526Zm10.161-.044c-.7.517-.535,1.259.239,1.057.494-.129.811.049.857.48.04.377.105.98.145,1.339a.92.92,0,0,0,.872.708,7.982,7.982,0,0,1,1.126.144c.18.05.915.248,1.634.441,1.6.43,2.467,1.072,2.148,1.588-.131.212.149.386.622.386a1.216,1.216,0,0,0,1.082-.545c.154-.378.331-.4.581-.077a2.044,2.044,0,0,0,2.678.52c.565-.457.618-.446.309.067-.283.47-.19.549.388.327a4.643,4.643,0,0,1,1.349-.292c.324,0,.707-.372.851-.827a.8.8,0,0,1,1.046-.622c1.112.291,1,1.368-.124,1.162-.886-.163-.887-.157-.036.247a7.061,7.061,0,0,0,2.346.445,39.37,39.37,0,0,1,4.14.458c3.8.609,13.348,1.677,17.7,1.979,2.037.141,4.586.335,5.665.43,2.272.2,6.758.519,12.637.9,2.277.147,5.414.375,6.972.507,3.744.317,9.638.341,10.458.042a22.312,22.312,0,0,1,2.506-.573c1.019-.184,1.852-.479,1.852-.655a4.454,4.454,0,0,0-1.077-1.4c-.877-.877-1.485-1.069-3.27-1.034-1.3.026-2.133-.136-2.046-.4.081-.243,1.657-.457,3.5-.477,2.9-.031,4.828-.595,4.169-1.218-.295-.279-6.072-.554-6.071-.289a9.335,9.335,0,0,1-2.941.1,32.529,32.529,0,0,0-5.442.26,8.9,8.9,0,0,1-2.707.19,6.872,6.872,0,0,0-2.076-.3,17.368,17.368,0,0,1-3.073-.429,2.123,2.123,0,0,0-1.757.122,16.225,16.225,0,0,1-4.767.56c-2.869.069-4.124.25-3.933.57.154.258-.052.2-.459-.131a3.121,3.121,0,0,0-2.512-.317c-1.164.186-1.678.13-1.5-.163.309-.5.251-.509-3.7-.615a18.417,18.417,0,0,1-3.813-.419c-.539-.188-.98-.182-.98.013s-.49.356-1.089.356-1.089-.147-1.089-.327-.306-.327-.679-.327-.577.166-.452.368c.3.489-4.174-.229-4.5-.722-.595-.9-8.75-1.817-8.75-.981a.464.464,0,0,1-.461.464c-.254,0-.349-.183-.211-.406.394-.638-.608-1.03-1.257-.492-.435.361-.639.339-.8-.087-.141-.367-.858-.535-2.012-.471-.986.055-1.793-.083-1.793-.307,0-.721-2.239-.247-2.674.565-.231.432-.61.669-.841.525a.465.465,0,0,1-.2-.62c.122-.2-.064-.47-.415-.6a.768.768,0,0,0-.9.179c-.16.258-.718.17-1.43-.227-1.34-.747-5.509-1.54-6.041-1.15Zm-6.239,1.979c0,.765.261.878.635.274a.5.5,0,0,0-.192-.679C273.648,197.905,273.449,198.087,273.449,198.461Zm1.642.753a1.116,1.116,0,0,0,1.032.27c.326-.109.129-.306-.46-.46-.725-.19-.895-.133-.572.19ZM425.2,200.32c-.539.1-.98.339-.98.521,0,.533,1.894.243,2.081-.319.094-.281.1-.484.025-.451s-.586.144-1.126.248Zm-9.042,1c1.2.515,1.886.515,1.089,0a2.691,2.691,0,0,0-1.307-.4C415.511,200.937,415.585,201.073,416.16,201.32Zm2.64-.041c-.134.217.148.293.628.167,1.017-.266,1.146-.562.244-.562A1.119,1.119,0,0,0,418.8,201.279Zm-56.1.986c-.686.689-.375.737,5.011.77,3.158.019,6.18.119,6.714.222s1.073.023,1.2-.178.826-.324,1.559-.273c1.983.137,1.992-.5.01-.686-.937-.089-1.611-.012-1.5.172.358.579-.313.364-1-.319-.741-.741-2.582-.875-2.989-.217-.179.29-.557.283-1.124-.02-.965-.516-1.873-.165-1.43.552.194.314.086.344-.32.089a10.724,10.724,0,0,0-3.009-.616c-1.886-.182-2.552-.075-3.128.5Zm34.938-.51c0,.24.086.436.192.436s.313-.2.461-.436.062-.436-.192-.436A.45.45,0,0,0,397.64,201.755Zm-17.43.871c-.393.254-.446.425-.135.429a1.013,1.013,0,0,0,.788-.429C381.2,202.086,381.047,202.086,380.21,202.627Zm170.2.059c.226.365-1.435.794-1.771.458-.469-.469-2.405-.557-2.405-.11,0,.277-1.24.343-3.377.181-2.62-.2-3.719-.1-4.9.456-.839.391-1.195.621-.791.512s.8-.029.872.179a1.159,1.159,0,0,0,.791.52,1.875,1.875,0,0,1,.974.577c.176.24.323.006.327-.519.006-.9.072-.92,1.205-.329,1.075.562,1.26.548,1.8-.135.574-.724.59-.724.341,0-.2.589-.022.763.791.763a1.886,1.886,0,0,0,1.5-.763c.247-.423.45-.52.457-.218.014.571,1.321.786,1.321.218,0-.18,1.482-.315,3.294-.3a10.065,10.065,0,0,0,3.512-.327,1.6,1.6,0,0,1,1.151-.352c.746,0,.824-.109.388-.545-.545-.545-5.806-.8-5.476-.267Zm7.153.013a.388.388,0,0,0,.327.393c.18.016.954.112,1.721.212,1.724.226,2.338-.522.679-.827C558.651,202.174,557.563,202.263,557.563,202.7Zm-31.374,1.453c0,.24-.735.436-1.634.436a3.3,3.3,0,0,1-1.955-.436q-.32-.436-.328,0c-.01.546-2.62.675-2.62.13,0-.219-.178-.289-.4-.154-.415.257-4.248.668-8.319.894a15.037,15.037,0,0,0-2.4.231c0,.292-5.734.3-6.1,0-.655-.521-5.011-.884-5.011-.418,0,.222-.294.4-.654.4s-.654-.189-.654-.42c0-.263-3.069-.343-8.171-.214-4.494.113-8.643.2-9.222.2a11.422,11.422,0,0,0-2.506.4c-.875.241-1.454.243-1.454,0,0-.4-1.524-.332-1.937.082a23.8,23.8,0,0,1-4.407.062c-2.777-.1-4.4.017-4.806.356-.48.4-.617.379-.622-.087,0-.378-.125-.43-.327-.143s-2.671.477-6.2.509c-3.236.03-13.04.166-21.788.3s-19.974.275-24.947.307a75.648,75.648,0,0,0-9.043.331,5.536,5.536,0,0,1-2.4.273c-1.318,0-2.4-.147-2.4-.327s-.208-.327-.461-.327-.34.2-.192.436-.036.436-.41.436-.679.2-.679.436a.45.45,0,0,1-.461.436c-.254,0-.34-.2-.192-.436.159-.257-.321-.433-1.173-.429-1.091.006-1.283.109-.788.429s.5.424.078.429c-.443.006-.426.157.078.66a2.542,2.542,0,0,0,1.556.654c.5,0,.9.209.9.465,0,.276.377.346.926.171.623-.2.829-.136.628.189-.164.265-.182.482-.041.482s.407-.4.589-.9l.332-.9,1.149.9c.788.62,1.244.75,1.452.414s.409-.318.668.1c.3.48,3.287.588,15.96.575,8.577-.009,19.124-.142,23.438-.3s11.471-.394,15.905-.533c16.01-.5,20.134-.684,20.493-.906.8-.5,4.313-.935,4.845-.606a.641.641,0,0,0,.905-.171c.253-.389.447-.356.767.132.236.36.432.458.436.218,0-.275,2.7-.416,7.306-.383,7.279.053,19.717-.651,19.718-1.115a11.891,11.891,0,0,1,3.377-.2,76.078,76.078,0,0,0,11.814-.961c.479-.152.489-.314.047-.846s-.434-.623.06-.467c.333.105,1.154.312,1.822.459.749.165,1.12.471.964.8-.139.293-.023.225.256-.15.411-.552.971-.619,2.928-.354a7.358,7.358,0,0,0,3.184-.081,5.7,5.7,0,0,1,1.991-.468c1.13-.055,1.144-.075.176-.257-.813-.153-.912-.286-.436-.588.674-.426.107-.48-6.03-.569-2.141-.031-3.595.124-3.595.384Zm-126.648,3.919c-.137.358-.425.543-.64.41-.615-.38-.455-1.061.25-1.061C399.54,207.42,399.693,207.676,399.542,208.071Zm-25.415-1.49c.448.838.422.933-.195.7s-.643-.141-.2.688l.515.962.434-.972c.5-1.115,1.4-1.277,1.765-.318.138.359.094.654-.1.654s-.349.3-.349.659c0,.536.394.607,2.106.38,1.439-.191,2.106-.124,2.106.212,0,.273.689.492,1.551.492,1.017,0,1.449-.165,1.255-.479-.211-.341-.032-.338.618.01.76.407.871.377.66-.174-.14-.365-.43-.664-.644-.664a.416.416,0,0,1-.389-.436c0-.908.788-.383,1.307.872.606,1.463.622,1.472,1.714.887.551-.295.721-.755.571-1.543-.118-.618-.043-1.066.166-1a.535.535,0,0,0,.6-.3c.129-.252-.907-.456-2.535-.5-2.517-.068-2.794.016-3.229.971-.469,1.029-2.079,1.481-2.079.583,0-.254.194-.342.431-.2s.322-.017.182-.382a.69.69,0,0,0-.938-.384c-.448.172-.582.09-.382-.233.351-.567-1.1-.986-2.779-.8A4.1,4.1,0,0,1,374.4,206c-.713-.347-.742-.286-.276.583Zm11.921,1.637c.123.2-.052.363-.391.363s-.514-.163-.391-.363.3-.363.391-.363S385.924,208.019,386.048,208.219Zm-17.791-1.72c-.131.212.152.488.63.613q.868.227.6.921c-.146.382-.082.694.143.694.6,0,.5-1.423-.14-2.065S368.579,205.978,368.257,206.5Zm2.672,1.212c.123.32.279.581.348.581s.225-.261.348-.581-.034-.581-.348-.581S370.807,207.391,370.929,207.711Zm1.681,1.221a3.618,3.618,0,0,0,1.8.654c1.039.015,1.7-.646,1.051-1.048a.382.382,0,0,0-.573.25c-.126.376-.4.377-1.1,0-1.339-.717-2.182-.616-1.181.142Zm-5.79.059a.876.876,0,0,0,.835.034c.348-.139.244-.242-.263-.263-.459-.019-.717.084-.572.229Zm22.977.172c-.559.361-.543.423.109.429.419,0,.763-.189.763-.429,0-.531-.049-.531-.872,0Zm-2.34.664c-.208.542-.1.579.607.2,1.01-.541,1.106-.866.255-.866A1.042,1.042,0,0,0,387.456,209.827Z" transform="translate(0 96.191) rotate(-7)"/></svg>